<?xml version="1.0" encoding="UTF-8" standalone="no"?>
<svg width="22px" height="17px" viewBox="0 0 22 17" version="1.1" xmlns="http://www.w3.org/2000/svg" xmlns:xlink="http://www.w3.org/1999/xlink">
    <!-- Generator: Sketch 39.1 (31720) - http://www.bohemiancoding.com/sketch -->
    <title>other-conversation-review-comment-bubble-talk-outline-stroke</title>
    <desc>Created with Sketch.</desc>
    <defs></defs>
    <g id="Page-1" stroke="none" stroke-width="1" fill="none" fill-rule="evenodd">
        <g id="chat" fill="#000000">
            <g id="Group">
                <g id="miu">
                    <g id="Artboard-1">
                        <path d="M12.5,3.95837 L2.5,3.958369 C0,3.95837 0,6.456294 0,6.456294 L0,12.458369 C0,12.458369 0,14.968135 2.5,14.968135 L3.014665,14.968135 L4.77789,16.714462 L6.503418,14.968135 L12.5,14.968135 C15,14.968135 15,12.458369 15,12.458369 L15,6.458369 C15,6.458369 15,3.958369 12.5,3.95837 L12.5,3.95837 L12.5,3.95837 Z M19.5,0.95837 L9.5,0.958369 C7,0.95837 7,3.456294 7,3.456294 L8,3.458369 C8,3.458369 8,1.958369 9.5,1.958369 L19.5,1.958369 C21,1.95837 21,3.458369 21,3.458369 L21,9.458369 C21,9.458369 21,10.958369 19.5,10.958369 L18.144409,10.958369 L17.020509,12.46606 L15.867065,10.958369 L15.487553,10.95837 L15.487553,11.968135 L17.020509,13.714463 L18.508545,11.968135 L19.5,11.968135 C22,11.968135 22,9.458369 22,9.458369 L22,3.458369 C22,3.458369 22,0.958369 19.5,0.95837 L19.5,0.95837 L19.5,0.95837 Z M12.5,4.95837 L2.5,4.958369 C2.5,4.958369 1,4.958369 1,6.45837 L1,12.458369 C1,13.968135 2.5,13.968135 2.5,13.968135 L3.263367,13.968135 L4.762329,15.503169 L6.354553,13.968135 L12.5,13.968135 C14,13.968135 14,12.458369 14,12.458369 L14,6.45837 C14,6.45837 14,4.958369 12.5,4.95837 L12.5,4.95837 L12.5,4.95837 Z" id="other-conversation-review-comment-bubble-talk-outline-stroke"></path>
                    </g>
                </g>
            </g>
        </g>
    </g>
</svg>