<?xml version="1.0" encoding="UTF-8" standalone="no"?>
<svg width="60px" height="60px" viewBox="0 0 60 60" version="1.1" xmlns="http://www.w3.org/2000/svg" xmlns:xlink="http://www.w3.org/1999/xlink">
    <!-- Generator: Sketch 39.1 (31720) - http://www.bohemiancoding.com/sketch -->
    <title>filmstrip</title>
    <desc>Created with Sketch.</desc>
    <defs></defs>
    <g id="Page-1" stroke="none" stroke-width="1" fill="none" fill-rule="evenodd">
        <g id="1486581978_filmstrip2" fill="#000000">
            <g id="People">
                <g id="Icon-30">
                    <path d="M26,35.3 L26,24.7 L35,30 L26,35.3 L26,35.3 Z M25.5,22.1 C25.2,21.9 24.8,21.9 24.5,22.1 C24.2,22.3 24,22.6 24,23 L24,37 C24,37.4 24.2,37.7 24.5,37.9 C24.7,38 24.8,38 25,38 C25.2,38 25.3,38 25.5,37.9 L37.5,30.9 C37.8,30.7 38,30.4 38,30 C38,29.6 37.8,29.3 37.5,29.1 L25.5,22.1 L25.5,22.1 Z M55,58 L50,58 L50,50 L58,50 L58,55 C58,56.7 56.7,58 55,58 L55,58 L55,58 Z M50,48 L58,48 L58,42 L50,42 L50,48 L50,48 Z M50,16 L58,16 L58,10 L50,10 L50,16 L50,16 Z M50,40 L58,40 L58,34 L50,34 L50,40 L50,40 Z M50,32 L58,32 L58,26 L50,26 L50,32 L50,32 Z M50,24 L58,24 L58,18 L50,18 L50,24 L50,24 Z M55,0 L11.1,0 C11.5,0 12,0.4 12,1 L12,2.2 L55,2 C56.7,2 58,3.3 58,5 L58,8 L50,8 L50,2 L49,2 L48,2 L48,48 L12,48 L12,49 L12,50 L48,50 L48,59 C48,59.6 48.4,60 49,60 L55,60 C57.8,60 60,57.8 60,55 L60,5 C60,2.2 57.8,0 55,0 L55,0 L55,0 Z M5,2 L10,2 L10,8 L2,8 L2,5 C2,3.3 3.3,2 5,2 L5,2 L5,2 Z M2,16 L10,16 L10,10 L2,10 L2,16 L2,16 Z M2,48 L10,48 L10,42 L2,42 L2,48 L2,48 Z M2,24 L10,24 L10,18 L2,18 L2,24 L2,24 Z M2,32 L10,32 L10,26 L2,26 L2,32 L2,32 Z M2,40 L10,40 L10,34 L2,34 L2,40 L2,40 Z M48,58 L5,58 C3.3,58 2,56.7 2,55 L2,50 L10,50 L10,58 L11,58 L12,58 L12,10 L48,10 L48,8.8 C48,8.2 48,8.8 48,8 L12,8 L12,0.9 C11.9,0.4 11.6,0 11,0 L5,0 C2.2,0 0,2.2 0,5 L0,55 C0,57.8 2.2,60 5,60 L48.8,60 C48.4,59.9 48,59.5 48,59 L48,58 L48,58 L48,58 Z" id="filmstrip"></path>
                </g>
            </g>
        </g>
    </g>
</svg>