<?xml version="1.0" encoding="utf-8"?>
<!-- Generator: Adobe Illustrator 19.2.1, SVG Export Plug-In . SVG Version: 6.00 Build 0)  -->
<svg version="1.1" id="Слой_1" xmlns:ev="http://www.w3.org/2001/xml-events"
	 xmlns="http://www.w3.org/2000/svg" xmlns:xlink="http://www.w3.org/1999/xlink" x="0px" y="0px" viewBox="0 0 41 31"
	 style="enable-background:new 0 0 41 31;" xml:space="preserve">
<path style="fill:#E2E2E2;" d="M38.5,31h-36C1.1,31,0,29.9,0,28.5v-26C0,1.1,1.1,0,2.5,0h36C39.9,0,41,1.1,41,2.5v26
	C41,29.9,39.9,31,38.5,31z M2.5,1C1.7,1,1,1.7,1,2.5v26C1,29.3,1.7,30,2.5,30h36c0.8,0,1.5-0.7,1.5-1.5v-26C40,1.7,39.3,1,38.5,1
	H2.5z"/>
<path style="fill:#E2E2E2;" d="M2.5,0.5h36c1.1,0,2,0.9,2,2v18h-40v-18C0.5,1.4,1.4,0.5,2.5,0.5z"/>
</svg>
