<?xml version="1.0" encoding="utf-8"?>
<!-- Generator: Adobe Illustrator 19.2.1, SVG Export Plug-In . SVG Version: 6.00 Build 0)  -->
<svg version="1.1" id="Слой_1" xmlns="http://www.w3.org/2000/svg" xmlns:xlink="http://www.w3.org/1999/xlink" x="0px" y="0px"
	 viewBox="0 0 2431.8 1908.3" style="enable-background:new 0 0 2431.8 1908.3;" xml:space="preserve">
<g id="Layer_1">
</g>
<g id="Layer_1_1_">
</g>
<g>
	<g id="comment">
		<g>
			<path d="M873.3,383.2l-0.6-224c0-15.7,11.4-27.2,25.3-27.2h1374.8c14.4,0,26.8,12,26.8,27.2v959.9c0,15.3-12.7,29.9-26.8,29.9
				h-315c-37.5,0-68.2,30.7-68.2,68.2v230.4c0,1.4-1.6,2.1-2.7,1.3c-109.5-89.4-218.9-178.7-328.4-268.1c0.1,56.3,0.2,112.7,0.2,169
				l355.4,292.5c12.1,9.9,26.9,14.7,42,14.7c9.6,0,18.9-2.1,27.9-6.3c23.1-10.9,37.5-34.2,37.5-59.7v-308.3c0-0.9,0.7-1.6,1.6-1.6
				h249.5c87.7,0,158.8-73,158.8-161.9V159.2c0-88.5-71.1-159.2-158.8-159.2H898.1c-86.8,0-158.3,70.7-158.3,159.2
				c0,74.7,0,149.5,0.1,224.2"/>
		</g>
	</g>
	<g id="comment_1_">
		<g>
			<path d="M447.5,1902c-23.1-10.9-37.5-34.2-37.5-59.7v-309.9H158.8c-87.7,0-158.8-73-158.8-161.9l0-959.9
				C0,322,71.1,251.3,158.8,251.3h1374.8c86.8,0,158.3,70.7,158.3,159.2v959.9c0,88.9-71.5,161.9-158.3,161.9H956.9l-439.5,361.3
				c-12.1,9.9-26.9,14.7-42,14.7C465.8,1908.3,456.5,1906.2,447.5,1902z M1533.7,383.3H158.8c-14.4,0-26.8,12-26.8,27.2v959.9
				c0,15.3,12.7,29.9,26.8,29.9h316.6c36.5,0,66.6,28.8,66.6,65.3v236.7L891.5,1415c11.8-9.7,26.4-14.7,41.7-14.7h600.4
				c13.7,0,25.3-14.1,25.3-29.9V410.5C1559,394.8,1547.6,383.3,1533.7,383.3z"/>
		</g>
	</g>
	<path d="M1527.9,1278"/>
</g>
</svg>
