<?xml version="1.0" encoding="utf-8"?>
<!-- Generator: Adobe Illustrator 19.2.1, SVG Export Plug-In . SVG Version: 6.00 Build 0)  -->
<svg version="1.1" id="Layer_1" xmlns="http://www.w3.org/2000/svg" xmlns:xlink="http://www.w3.org/1999/xlink" x="0px" y="0px"
	 viewBox="0 0 512 512" style="enable-background:new 0 0 512 512;" xml:space="preserve">
<g>
	<path d="M202.7,405.5c-54.2,0-105.1-21.1-143.4-59.4c-79.1-79.1-79.1-207.7,0-286.8C97.7,21,148.6,0,202.7,0
		c54.2,0,105.1,21,143.4,59.3s59.4,89.2,59.4,143.4s-21.1,105.1-59.4,143.4S256.9,405.5,202.7,405.5z M202.7,21.1
		c-48.5,0-94.2,18.9-128.5,53.2c-70.8,70.8-70.8,186.1,0,257c34.3,34.3,79.9,53.2,128.5,53.2c48.5,0,94.2-18.9,128.5-53.2
		s53.2-79.9,53.2-128.5c0-48.5-18.9-94.2-53.2-128.5C296.9,39.9,251.3,21.1,202.7,21.1z"/>
	<path d="M501.5,512c-2.7,0-5.4-1-7.5-3.1L331.2,346.1c-4.1-4.1-4.1-10.8,0-14.9s10.8-4.1,14.9,0L509,494c4.1,4.1,4.1,10.8,0,14.9
		C506.9,511,504.2,512,501.5,512z"/>
</g>
</svg>
