<?xml version="1.0" encoding="utf-8"?>
<!-- Generator: Adobe Illustrator 16.0.3, SVG Export Plug-In . SVG Version: 6.00 Build 0)  -->
<!DOCTYPE svg PUBLIC "-//W3C//DTD SVG 1.1//EN" "http://www.w3.org/Graphics/SVG/1.1/DTD/svg11.dtd">
<svg version="1.1" id="Layer_1" xmlns="http://www.w3.org/2000/svg" xmlns:xlink="http://www.w3.org/1999/xlink" x="0px" y="0px"
	 width="103px" height="136px" viewBox="0 0 103 136" enable-background="new 0 0 103 136" xml:space="preserve">
<g>
	<g>
		<path d="M80.539,136c-1.942,0-3.773-0.588-5.45-1.746c-1.369-0.88-3.084-0.835-4.404,0.015c-3.351,2.323-7.655,2.271-10.958-0.015
			c-1.361-0.874-3.091-0.835-4.293,0c-3.113,2.238-7.484,2.39-11.06,0.009c-1.123-0.844-2.876-0.928-4.329,0.006
			c-3.076,2.215-7.55,2.375-10.885-0.025c-1.319-0.785-3.049-0.895-4.481,0.025c-1.581,1.14-3.388,1.731-5.335,1.731
			c-2.063,0-3.929-0.592-5.548-1.757c-1.523-0.906-3.248-0.767-4.481,0.025C7.733,135.408,5.926,136,3.98,136
			c-0.885,0-1.754-0.096-2.583-0.287l0.396-1.721c0.699,0.158,1.435,0.241,2.187,0.241c1.591,0,3.009-0.465,4.341-1.425
			c1.854-1.192,4.229-1.367,6.445-0.038c1.392,0.998,2.869,1.463,4.578,1.463c1.591,0,3.011-0.465,4.342-1.425
			c2.05-1.319,4.453-1.236,6.445-0.038c1.392,0.998,2.812,1.463,4.402,1.463c1.708,0,3.186-0.465,4.517-1.425
			c2.134-1.372,4.723-1.205,6.345,0.012c1.394,0.928,2.924,1.413,4.504,1.413c1.708,0,3.184-0.465,4.515-1.425
			c1.796-1.244,4.302-1.308,6.293-0.023c1.417,0.979,2.899,1.448,4.557,1.448c1.594,0,3.049-0.469,4.442-1.433
			c1.933-1.242,4.384-1.291,6.364-0.016c2.887,1.995,6.26,1.908,8.998,0.016c1.853-1.194,4.117-1.219,5.782-0.314l-0.847,1.552
			c-1.113-0.606-2.669-0.595-3.955,0.23C84.399,135.412,82.538,136,80.539,136z M80.539,130.703c-1.942,0-3.773-0.589-5.45-1.749
			c-1.369-0.88-3.084-0.831-4.404,0.018c-3.351,2.32-7.655,2.27-10.958-0.018c-1.361-0.872-3.091-0.831-4.293,0
			c-3.113,2.238-7.484,2.391-11.06,0.009c-1.123-0.84-2.876-0.927-4.329,0.009c-3.076,2.214-7.55,2.374-10.885-0.025
			c-1.319-0.785-3.049-0.896-4.481,0.025c-1.581,1.14-3.388,1.731-5.335,1.731c-2.063,0-3.929-0.592-5.548-1.757
			c-1.523-0.906-3.248-0.767-4.481,0.025c-1.582,1.14-3.389,1.731-5.334,1.731c-0.904,0-1.785-0.116-2.616-0.342l-1.368-0.373
			l5.176-5.874c1.663-2.049,5.566-3.567,11.909-4.615c0.622-0.104,1.291-0.205,2.006-0.307l2.25-2.911l0.354-0.052
			c1.27-0.187,2.657-0.38,4.162-0.575l7.412-1.016c8.801-1.357,11.991-3.012,13.063-4.247H28.597l-4.986-5.121H28.1
			c-2.445-2.35-5.17-5.484-8.132-9.354l-1.087-1.42h8.286l0.244,0.202c1.626,1.333,3.922,3.012,6.825,4.984
			c2.792,1.937,6.189,3.815,10.113,5.587h7.405c9.718,0.274,20.12,2.069,30.939,5.336c3.115,0.959,6.323,2.052,9.538,3.248
			c3.498,0.427,6.66,1.059,9.398,1.872l1.312,0.39l-0.894,1.034c-4.28,4.95-7.993,8.812-11.036,11.477l-0.461,0.403l-0.539-0.286
			c-1.147-0.618-2.684-0.591-3.962,0.228C84.399,130.114,82.538,130.703,80.539,130.703z M72.945,126.552
			c1.109,0,2.161,0.315,3.124,0.937c2.887,1.996,6.26,1.909,8.998,0.016c1.642-1.058,3.605-1.205,5.206-0.58
			c2.677-2.399,5.875-5.716,9.52-9.877c-2.352-0.615-4.996-1.103-7.881-1.451l0.003-0.02l-0.005,0.018
			c-10.363-1.275-24.375-0.86-41.642,1.238c-8.658,1.059-15.933,1.994-21.62,2.779c-3.533,0.469-6.514,0.896-8.947,1.277
			l-2.194,0.346l0.014-0.018c-0.051,0.007-0.102,0.018-0.152,0.024c-7.245,1.196-9.899,2.842-10.849,4.013L3.3,128.91
			c1.777,0.133,3.497-0.302,5.021-1.397c1.854-1.193,4.229-1.37,6.445-0.04c1.392,0.997,2.869,1.463,4.578,1.463
			c1.591,0,3.011-0.466,4.342-1.423c2.05-1.321,4.453-1.237,6.445-0.04c1.392,0.997,2.812,1.463,4.402,1.463
			c1.708,0,3.186-0.466,4.517-1.423c2.134-1.376,4.723-1.207,6.345,0.01c1.394,0.928,2.924,1.413,4.504,1.413
			c1.708,0,3.184-0.466,4.515-1.423c1.796-1.242,4.302-1.308,6.293-0.024c1.417,0.979,2.899,1.447,4.557,1.447
			c1.594,0,3.049-0.469,4.442-1.432C70.695,126.867,71.774,126.552,72.945,126.552z M22.298,117.927l-0.686,0.884
			c1.982-0.294,4.249-0.612,6.8-0.949c5.691-0.787,12.973-1.724,21.642-2.782c13.843-1.682,25.622-2.289,35.148-1.817
			c-1.018-0.336-2.025-0.657-3.025-0.966c-10.664-3.22-20.912-4.99-30.45-5.259H27.794l1.548,1.589h19.34l-0.116,0.985
			c-0.362,3.096-5.144,5.247-15.046,6.774l-7.433,1.019C24.725,117.582,23.463,117.758,22.298,117.927z M30.71,105.271h9.545
			c-2.631-1.333-4.982-2.716-7.021-4.131c-2.798-1.901-5.052-3.543-6.699-4.876h-4.063C25.524,100.137,28.289,103.16,30.71,105.271z
			"/>
	</g>
</g>
<g display="none">
	<g display="inline">
		<path fill="#F6CB02" d="M80.537,136c-1.938,0-3.771-0.591-5.446-1.748c-1.371-0.878-3.086-0.833-4.406,0.017
			c-3.351,2.323-7.656,2.271-10.958-0.017c-1.361-0.872-3.09-0.833-4.293,0c-3.113,2.239-7.484,2.39-11.06,0.011
			c-1.123-0.844-2.876-0.928-4.329,0.006c-3.076,2.215-7.55,2.373-10.885-0.025c-1.319-0.785-3.049-0.895-4.481,0.025
			c-1.581,1.139-3.388,1.731-5.335,1.731c-2.063,0-3.929-0.593-5.548-1.757c-1.523-0.906-3.248-0.768-4.481,0.025
			C7.733,135.407,5.926,136,3.98,136c-0.885,0-1.754-0.096-2.583-0.288l0.396-1.722c0.699,0.16,1.435,0.243,2.187,0.243
			c1.591,0,3.009-0.465,4.341-1.425c1.854-1.192,4.229-1.367,6.445-0.039c1.392,0.999,2.869,1.464,4.578,1.464
			c1.591,0,3.011-0.465,4.342-1.425c2.05-1.319,4.453-1.237,6.445-0.039c1.392,0.999,2.812,1.464,4.402,1.464
			c1.708,0,3.186-0.465,4.517-1.425c2.134-1.375,4.723-1.206,6.345,0.012c1.394,0.928,2.924,1.413,4.504,1.413
			c1.708,0,3.186-0.465,4.518-1.425c1.791-1.245,4.299-1.308,6.292-0.023c1.417,0.979,2.897,1.448,4.553,1.448
			c1.596,0,3.051-0.469,4.442-1.435c1.932-1.241,4.388-1.289,6.366-0.014c2.888,1.993,6.26,1.908,8.998,0.014
			c1.854-1.192,4.117-1.217,5.785-0.313l-0.848,1.552c-1.115-0.606-2.674-0.597-3.954,0.23C84.398,135.409,82.538,136,80.537,136z
			 M80.537,130.703c-1.938,0-3.771-0.59-5.446-1.75c-1.371-0.879-3.086-0.83-4.406,0.019c-3.351,2.32-7.656,2.27-10.958-0.019
			c-1.361-0.871-3.09-0.83-4.293,0c-3.113,2.239-7.484,2.392-11.06,0.01c-1.123-0.84-2.876-0.927-4.329,0.009
			c-3.076,2.214-7.55,2.373-10.885-0.025c-1.319-0.785-3.049-0.896-4.481,0.025c-1.581,1.138-3.388,1.731-5.335,1.731
			c-2.063,0-3.929-0.594-5.548-1.757c-1.523-0.906-3.248-0.768-4.481,0.025c-1.582,1.138-3.389,1.731-5.334,1.731
			c-0.904,0-1.785-0.118-2.616-0.342l-1.368-0.373l5.176-5.874c1.663-2.049,5.566-3.569,11.909-4.615
			c0.622-0.104,1.291-0.207,2.006-0.307l2.25-2.912l0.354-0.053c1.27-0.185,2.657-0.378,4.162-0.575l7.412-1.015
			c8.801-1.356,11.991-3.011,13.063-4.247H28.597l-4.986-5.121H28.1c-2.445-2.35-5.17-5.485-8.132-9.353l-1.087-1.42h8.286
			l0.244,0.201c1.626,1.334,3.922,3.011,6.825,4.984c2.792,1.937,6.189,3.814,10.113,5.587h7.405
			c9.718,0.275,20.12,2.069,30.939,5.336c3.116,0.959,6.321,2.052,9.537,3.248c3.499,0.428,6.662,1.058,9.401,1.872l1.311,0.39
			l-0.895,1.034c-4.28,4.951-7.993,8.811-11.036,11.477l-0.461,0.403l-0.54-0.285c-1.146-0.618-2.684-0.594-3.958,0.228
			C84.398,130.113,82.538,130.703,80.537,130.703z M72.945,126.549c1.108,0,2.159,0.318,3.124,0.939
			c2.888,1.993,6.26,1.906,8.998,0.013c1.641-1.055,3.605-1.202,5.204-0.577c2.681-2.399,5.878-5.717,9.522-9.879
			c-2.353-0.614-4.997-1.102-7.882-1.451l0.001-0.018l-0.003,0.018c-10.362-1.276-24.372-0.861-41.642,1.238
			c-8.658,1.058-15.933,1.994-21.62,2.778c-3.533,0.469-6.514,0.896-8.947,1.278l-2.194,0.346l0.014-0.018
			c-0.051,0.007-0.102,0.018-0.152,0.024c-7.245,1.196-9.899,2.842-10.849,4.012L3.3,128.91c1.777,0.133,3.497-0.302,5.021-1.397
			c1.854-1.193,4.229-1.37,6.445-0.041c1.392,0.998,2.869,1.464,4.578,1.464c1.591,0,3.011-0.466,4.342-1.423
			c2.05-1.321,4.453-1.239,6.445-0.041c1.392,0.998,2.812,1.464,4.402,1.464c1.708,0,3.186-0.466,4.517-1.423
			c2.134-1.378,4.723-1.207,6.345,0.01c1.394,0.928,2.924,1.413,4.504,1.413c1.708,0,3.186-0.466,4.518-1.423
			c1.791-1.242,4.299-1.308,6.292-0.024c1.417,0.979,2.897,1.447,4.553,1.447c1.596,0,3.051-0.469,4.442-1.435
			C70.692,126.867,71.775,126.549,72.945,126.549z M22.298,117.927l-0.686,0.883c1.982-0.293,4.249-0.611,6.8-0.948
			c5.691-0.788,12.973-1.725,21.642-2.783c13.841-1.682,25.623-2.289,35.15-1.817c-1.017-0.337-2.027-0.658-3.028-0.966
			c-10.664-3.221-20.909-4.989-30.449-5.26H27.794l1.548,1.591h19.34l-0.116,0.985c-0.362,3.095-5.144,5.247-15.046,6.774
			l-7.433,1.019C24.725,117.582,23.463,117.758,22.298,117.927z M30.71,105.27h9.545c-2.631-1.333-4.982-2.717-7.021-4.132
			c-2.798-1.9-5.052-3.542-6.699-4.876h-4.063C25.524,100.135,28.289,103.16,30.71,105.27z"/>
	</g>
</g>
</svg>
