<?xml version="1.0" encoding="utf-8"?>
<!-- Generator: Adobe Illustrator 21.0.0, SVG Export Plug-In . SVG Version: 6.00 Build 0)  -->
<svg version="1.1" id="Layer_1" xmlns="http://www.w3.org/2000/svg" xmlns:xlink="http://www.w3.org/1999/xlink" x="0px" y="0px"
	 viewBox="0 0 18 18" style="enable-background:new 0 0 18 18;" xml:space="preserve">
<style type="text/css">
	.st0{fill:#A8A8A8;}
</style>
<g>
	<path class="st0" d="M15.4,1.4V0.4h-1.7v1.1H4.2V0.4H2.5v1.1H0.4V17h17.3V1.4H15.4z M2.5,2.4v1.2h1.7V2.4h9.5v1.2h1.7V2.4h1.3v2.9
		H1.3V2.4H2.5z M1.3,16V6.2h15.4V16H1.3z"/>
	<rect x="9.9" y="7.5" class="st0" width="1.7" height="1.7"/>
	<rect x="6.1" y="7.5" class="st0" width="1.7" height="1.7"/>
	<rect x="13.7" y="7.5" class="st0" width="1.7" height="1.7"/>
	<rect x="9.9" y="10.3" class="st0" width="1.7" height="1.7"/>
	<rect x="6.1" y="10.3" class="st0" width="1.7" height="1.7"/>
	<rect x="2.5" y="10.3" class="st0" width="1.7" height="1.7"/>
	<rect x="6.1" y="13.1" class="st0" width="1.7" height="1.7"/>
	<rect x="2.5" y="13.1" class="st0" width="1.7" height="1.7"/>
	<rect x="13.7" y="10.3" class="st0" width="1.7" height="1.7"/>
</g>
</svg>
