<?xml version="1.0" encoding="utf-8"?>
<!-- Generator: Adobe Illustrator 16.0.3, SVG Export Plug-In . SVG Version: 6.00 Build 0)  -->
<!DOCTYPE svg PUBLIC "-//W3C//DTD SVG 1.1//EN" "http://www.w3.org/Graphics/SVG/1.1/DTD/svg11.dtd">
<svg version="1.1" id="Layer_1" xmlns="http://www.w3.org/2000/svg" xmlns:xlink="http://www.w3.org/1999/xlink" x="0px" y="0px"
	 width="103px" height="136px" viewBox="0 0 103 136" enable-background="new 0 0 103 136" xml:space="preserve">
<g display="none">
	<g display="inline">
		<path d="M80.539,136c-1.942,0-3.773-0.588-5.45-1.746c-1.369-0.88-3.084-0.835-4.404,0.015c-3.351,2.323-7.655,2.271-10.958-0.015
			c-1.361-0.874-3.091-0.835-4.293,0c-3.113,2.238-7.484,2.39-11.06,0.009c-1.123-0.844-2.876-0.928-4.329,0.006
			c-3.076,2.215-7.55,2.375-10.885-0.025c-1.319-0.785-3.049-0.895-4.481,0.025c-1.581,1.14-3.388,1.731-5.335,1.731
			c-2.063,0-3.929-0.592-5.548-1.757c-1.523-0.906-3.248-0.767-4.481,0.025C7.733,135.408,5.926,136,3.98,136
			c-0.885,0-1.754-0.096-2.583-0.287l0.396-1.721c0.699,0.158,1.435,0.241,2.187,0.241c1.591,0,3.009-0.465,4.341-1.425
			c1.854-1.192,4.229-1.367,6.445-0.038c1.392,0.998,2.869,1.463,4.578,1.463c1.591,0,3.011-0.465,4.342-1.425
			c2.05-1.319,4.453-1.236,6.445-0.038c1.392,0.998,2.812,1.463,4.402,1.463c1.708,0,3.186-0.465,4.517-1.425
			c2.134-1.372,4.723-1.205,6.345,0.012c1.394,0.928,2.924,1.413,4.504,1.413c1.708,0,3.184-0.465,4.515-1.425
			c1.796-1.244,4.302-1.308,6.293-0.023c1.417,0.979,2.899,1.448,4.557,1.448c1.594,0,3.049-0.469,4.442-1.433
			c1.933-1.242,4.384-1.291,6.364-0.016c2.887,1.995,6.26,1.908,8.998,0.016c1.853-1.194,4.117-1.219,5.782-0.314l-0.847,1.552
			c-1.113-0.606-2.669-0.595-3.955,0.23C84.399,135.412,82.538,136,80.539,136z M80.539,130.703c-1.942,0-3.773-0.589-5.45-1.749
			c-1.369-0.88-3.084-0.831-4.404,0.018c-3.351,2.32-7.655,2.27-10.958-0.018c-1.361-0.872-3.091-0.831-4.293,0
			c-3.113,2.238-7.484,2.391-11.06,0.009c-1.123-0.84-2.876-0.927-4.329,0.009c-3.076,2.214-7.55,2.374-10.885-0.025
			c-1.319-0.785-3.049-0.896-4.481,0.025c-1.581,1.14-3.388,1.731-5.335,1.731c-2.063,0-3.929-0.592-5.548-1.757
			c-1.523-0.906-3.248-0.767-4.481,0.025c-1.582,1.14-3.389,1.731-5.334,1.731c-0.904,0-1.785-0.116-2.616-0.342l-1.368-0.373
			l5.176-5.874c1.663-2.049,5.566-3.567,11.909-4.615c0.622-0.104,1.291-0.205,2.006-0.307l2.25-2.911l0.354-0.052
			c1.27-0.187,2.657-0.38,4.162-0.575l7.412-1.016c8.801-1.357,11.991-3.012,13.063-4.247H28.597l-4.986-5.121H28.1
			c-2.445-2.35-5.17-5.484-8.132-9.354l-1.087-1.42h8.286l0.244,0.202c1.626,1.333,3.922,3.012,6.825,4.984
			c2.792,1.937,6.189,3.815,10.113,5.587h7.405c9.718,0.274,20.12,2.069,30.939,5.336c3.115,0.959,6.323,2.052,9.538,3.248
			c3.498,0.427,6.66,1.059,9.398,1.872l1.312,0.39l-0.894,1.034c-4.28,4.95-7.993,8.812-11.036,11.477l-0.461,0.403l-0.539-0.286
			c-1.147-0.618-2.684-0.591-3.962,0.228C84.399,130.114,82.538,130.703,80.539,130.703z M72.945,126.552
			c1.109,0,2.161,0.315,3.124,0.937c2.887,1.996,6.26,1.909,8.998,0.016c1.642-1.058,3.605-1.205,5.206-0.58
			c2.677-2.399,5.875-5.716,9.52-9.877c-2.352-0.615-4.996-1.103-7.881-1.451l0.003-0.02l-0.005,0.018
			c-10.363-1.275-24.375-0.86-41.642,1.238c-8.658,1.059-15.933,1.994-21.62,2.779c-3.533,0.469-6.514,0.896-8.947,1.277
			l-2.194,0.346l0.014-0.018c-0.051,0.007-0.102,0.018-0.152,0.024c-7.245,1.196-9.899,2.842-10.849,4.013L3.3,128.91
			c1.777,0.133,3.497-0.302,5.021-1.397c1.854-1.193,4.229-1.37,6.445-0.04c1.392,0.997,2.869,1.463,4.578,1.463
			c1.591,0,3.011-0.466,4.342-1.423c2.05-1.321,4.453-1.237,6.445-0.04c1.392,0.997,2.812,1.463,4.402,1.463
			c1.708,0,3.186-0.466,4.517-1.423c2.134-1.376,4.723-1.207,6.345,0.01c1.394,0.928,2.924,1.413,4.504,1.413
			c1.708,0,3.184-0.466,4.515-1.423c1.796-1.242,4.302-1.308,6.293-0.024c1.417,0.979,2.899,1.447,4.557,1.447
			c1.594,0,3.049-0.469,4.442-1.432C70.695,126.867,71.774,126.552,72.945,126.552z M22.298,117.927l-0.686,0.884
			c1.982-0.294,4.249-0.612,6.8-0.949c5.691-0.787,12.973-1.724,21.642-2.782c13.843-1.682,25.622-2.289,35.148-1.817
			c-1.018-0.336-2.025-0.657-3.025-0.966c-10.664-3.22-20.912-4.99-30.45-5.259H27.794l1.548,1.589h19.34l-0.116,0.985
			c-0.362,3.096-5.144,5.247-15.046,6.774l-7.433,1.019C24.725,117.582,23.463,117.758,22.298,117.927z M30.71,105.271h9.545
			c-2.631-1.333-4.982-2.716-7.021-4.131c-2.798-1.901-5.052-3.543-6.699-4.876h-4.063C25.524,100.137,28.289,103.16,30.71,105.271z
			"/>
	</g>
</g>
<g display="none">
	<g display="inline">
		<path fill="#F6CB02" d="M80.537,136c-1.938,0-3.771-0.591-5.446-1.748c-1.371-0.878-3.086-0.833-4.406,0.017
			c-3.351,2.323-7.656,2.271-10.958-0.017c-1.361-0.872-3.09-0.833-4.293,0c-3.113,2.239-7.484,2.39-11.06,0.011
			c-1.123-0.844-2.876-0.928-4.329,0.006c-3.076,2.215-7.55,2.373-10.885-0.025c-1.319-0.785-3.049-0.895-4.481,0.025
			c-1.581,1.139-3.388,1.731-5.335,1.731c-2.063,0-3.929-0.593-5.548-1.757c-1.523-0.906-3.248-0.768-4.481,0.025
			C7.733,135.407,5.926,136,3.98,136c-0.885,0-1.754-0.096-2.583-0.288l0.396-1.722c0.699,0.16,1.435,0.243,2.187,0.243
			c1.591,0,3.009-0.465,4.341-1.425c1.854-1.192,4.229-1.367,6.445-0.039c1.392,0.999,2.869,1.464,4.578,1.464
			c1.591,0,3.011-0.465,4.342-1.425c2.05-1.319,4.453-1.237,6.445-0.039c1.392,0.999,2.812,1.464,4.402,1.464
			c1.708,0,3.186-0.465,4.517-1.425c2.134-1.375,4.723-1.206,6.345,0.012c1.394,0.928,2.924,1.413,4.504,1.413
			c1.708,0,3.186-0.465,4.518-1.425c1.791-1.245,4.299-1.308,6.292-0.023c1.417,0.979,2.897,1.448,4.553,1.448
			c1.596,0,3.051-0.469,4.442-1.435c1.932-1.241,4.388-1.289,6.366-0.014c2.888,1.993,6.26,1.908,8.998,0.014
			c1.854-1.192,4.117-1.217,5.785-0.313l-0.848,1.552c-1.115-0.606-2.674-0.597-3.954,0.23C84.398,135.409,82.538,136,80.537,136z
			 M80.537,130.703c-1.938,0-3.771-0.59-5.446-1.75c-1.371-0.879-3.086-0.83-4.406,0.019c-3.351,2.32-7.656,2.27-10.958-0.019
			c-1.361-0.871-3.09-0.83-4.293,0c-3.113,2.239-7.484,2.392-11.06,0.01c-1.123-0.84-2.876-0.927-4.329,0.009
			c-3.076,2.214-7.55,2.373-10.885-0.025c-1.319-0.785-3.049-0.896-4.481,0.025c-1.581,1.138-3.388,1.731-5.335,1.731
			c-2.063,0-3.929-0.594-5.548-1.757c-1.523-0.906-3.248-0.768-4.481,0.025c-1.582,1.138-3.389,1.731-5.334,1.731
			c-0.904,0-1.785-0.118-2.616-0.342l-1.368-0.373l5.176-5.874c1.663-2.049,5.566-3.569,11.909-4.615
			c0.622-0.104,1.291-0.207,2.006-0.307l2.25-2.912l0.354-0.053c1.27-0.185,2.657-0.378,4.162-0.575l7.412-1.015
			c8.801-1.356,11.991-3.011,13.063-4.247H28.597l-4.986-5.121H28.1c-2.445-2.35-5.17-5.485-8.132-9.353l-1.087-1.42h8.286
			l0.244,0.201c1.626,1.334,3.922,3.011,6.825,4.984c2.792,1.937,6.189,3.814,10.113,5.587h7.405
			c9.718,0.275,20.12,2.069,30.939,5.336c3.116,0.959,6.321,2.052,9.537,3.248c3.499,0.428,6.662,1.058,9.401,1.872l1.311,0.39
			l-0.895,1.034c-4.28,4.951-7.993,8.811-11.036,11.477l-0.461,0.403l-0.54-0.285c-1.146-0.618-2.684-0.594-3.958,0.228
			C84.398,130.113,82.538,130.703,80.537,130.703z M72.945,126.549c1.108,0,2.159,0.318,3.124,0.939
			c2.888,1.993,6.26,1.906,8.998,0.013c1.641-1.055,3.605-1.202,5.204-0.577c2.681-2.399,5.878-5.717,9.522-9.879
			c-2.353-0.614-4.997-1.102-7.882-1.451l0.001-0.018l-0.003,0.018c-10.362-1.276-24.372-0.861-41.642,1.238
			c-8.658,1.058-15.933,1.994-21.62,2.778c-3.533,0.469-6.514,0.896-8.947,1.278l-2.194,0.346l0.014-0.018
			c-0.051,0.007-0.102,0.018-0.152,0.024c-7.245,1.196-9.899,2.842-10.849,4.012L3.3,128.91c1.777,0.133,3.497-0.302,5.021-1.397
			c1.854-1.193,4.229-1.37,6.445-0.041c1.392,0.998,2.869,1.464,4.578,1.464c1.591,0,3.011-0.466,4.342-1.423
			c2.05-1.321,4.453-1.239,6.445-0.041c1.392,0.998,2.812,1.464,4.402,1.464c1.708,0,3.186-0.466,4.517-1.423
			c2.134-1.378,4.723-1.207,6.345,0.01c1.394,0.928,2.924,1.413,4.504,1.413c1.708,0,3.186-0.466,4.518-1.423
			c1.791-1.242,4.299-1.308,6.292-0.024c1.417,0.979,2.897,1.447,4.553,1.447c1.596,0,3.051-0.469,4.442-1.435
			C70.692,126.867,71.775,126.549,72.945,126.549z M22.298,117.927l-0.686,0.883c1.982-0.293,4.249-0.611,6.8-0.948
			c5.691-0.788,12.973-1.725,21.642-2.783c13.841-1.682,25.623-2.289,35.15-1.817c-1.017-0.337-2.027-0.658-3.028-0.966
			c-10.664-3.221-20.909-4.989-30.449-5.26H27.794l1.548,1.591h19.34l-0.116,0.985c-0.362,3.095-5.144,5.247-15.046,6.774
			l-7.433,1.019C24.725,117.582,23.463,117.758,22.298,117.927z M30.71,105.27h9.545c-2.631-1.333-4.982-2.717-7.021-4.132
			c-2.798-1.9-5.052-3.542-6.699-4.876h-4.063C25.524,100.135,28.289,103.16,30.71,105.27z"/>
	</g>
</g>
<g display="none">
	<g display="inline">
		<path d="M81.087,136c-1.982,0-3.855-0.601-5.568-1.786c-1.4-0.901-3.158-0.852-4.509,0.017c-3.425,2.373-7.826,2.318-11.205-0.017
			c-1.391-0.894-3.159-0.852-4.389,0c-3.184,2.289-7.648,2.445-11.309,0.009c-1.148-0.86-2.941-0.948-4.428,0.008
			c-3.14,2.264-7.718,2.428-11.128-0.025c-1.35-0.805-3.119-0.917-4.583,0.025c-1.617,1.165-3.465,1.77-5.454,1.77
			c-2.11,0-4.019-0.604-5.675-1.795c-1.497-0.893-3.225-0.788-4.299-0.074l-1.001-1.502c1.644-1.094,4.081-1.262,6.293,0.068
			c1.424,1.021,2.935,1.497,4.683,1.497c1.625,0,3.077-0.476,4.438-1.456c2.097-1.351,4.553-1.265,6.59-0.041
			c1.423,1.021,2.875,1.497,4.502,1.497c1.747,0,3.257-0.476,4.618-1.456c2.182-1.406,4.83-1.232,6.487,0.011
			c1.427,0.948,2.99,1.445,4.605,1.445c1.747,0,3.258-0.476,4.62-1.456c1.833-1.272,4.396-1.337,6.434-0.024
			c1.449,1.001,2.964,1.48,4.657,1.48c1.634,0,3.118-0.479,4.543-1.466c1.976-1.269,4.486-1.321,6.511-0.015
			c2.952,2.042,6.402,1.951,9.203,0.015c2.084-1.344,4.634-1.253,6.443,0c0.967,0.645,2.015,1.085,3.095,1.302l-0.354,1.771
			c-1.315-0.263-2.579-0.793-3.758-1.578c-1.255-0.871-2.983-0.922-4.427,0.008C85.034,135.399,83.133,136,81.087,136z
			 M81.087,130.582c-1.982,0-3.855-0.601-5.568-1.785c-1.4-0.902-3.158-0.853-4.509,0.016c-3.425,2.374-7.826,2.318-11.205-0.016
			c-1.391-0.895-3.159-0.853-4.389,0c-3.184,2.288-7.648,2.445-11.309,0.008c-1.148-0.86-2.941-0.948-4.428,0.008
			c-3.14,2.265-7.718,2.43-11.128-0.025c-1.35-0.805-3.119-0.917-4.583,0.025c-1.617,1.166-3.465,1.77-5.454,1.77
			c-2.11,0-4.019-0.604-5.675-1.795c-1.497-0.893-3.225-0.788-4.299-0.073l-0.375,0.25l-0.424-0.148
			c-2.421-0.849-4.78-1.767-7.012-2.733L0,125.769l2.845-9.904h0.68c3.875,0,7.695,0.028,11.459,0.082l3.115-4.36l13.222-1.643
			l5.489-4.572l0.355,0.021c5.159,0.294,10.3,0.741,15.299,1.328v-7.108H12.15l0.246-1.101c10.943-48.944,24.515-81.6,40.339-97.063
			l1.534-1.499v106.978c0.521,0.056,1.041,0.12,1.562,0.187c0.256,0,0.604,0.028,0.963,0.1c0.105-0.016,0.382,0.03,0.653,0.121
			c10.848,1.457,21.591,3.728,31.777,6.715c4.216-0.298,8.313-0.593,12.293-0.89l1.364-0.103l-0.44,1.292
			c-1.873,5.494-4.077,10.729-6.554,15.561l-0.311,0.608l-0.67-0.134c-1.315-0.263-2.579-0.794-3.758-1.579
			c-1.255-0.871-2.983-0.922-4.427,0.008C85.034,129.981,83.133,130.582,81.087,130.582z M73.324,126.338
			c1.132,0,2.208,0.323,3.195,0.958c2.952,2.042,6.402,1.951,9.203,0.016c2.084-1.344,4.634-1.254,6.443,0
			c0.77,0.513,1.588,0.897,2.438,1.141c2.112-4.194,4.017-8.69,5.678-13.393c-3.604,0.268-7.301,0.535-11.093,0.801l-0.163,0.013
			l-0.01-0.002c-4.829,0.236-9.773,0.477-14.839,0.715l-0.119,0.005l-3.855,0.177c-12.136,0.476-25.283,0.777-39.086,0.898
			l-0.002,0.005h-1.224c-4.451,0-8.962,0.029-13.533,0.089h-0.928c-3.688-0.057-7.43-0.086-11.225-0.089l-2.029,7.067
			c1.851,0.781,3.786,1.531,5.765,2.233c1.605-0.861,3.854-0.916,5.891,0.309c1.424,1.021,2.935,1.497,4.683,1.497
			c1.625,0,3.077-0.477,4.438-1.457c2.097-1.351,4.553-1.265,6.59-0.04c1.423,1.021,2.875,1.497,4.502,1.497
			c1.747,0,3.257-0.477,4.618-1.457c2.182-1.406,4.83-1.234,6.487,0.011c1.427,0.948,2.99,1.446,4.605,1.446
			c1.747,0,3.258-0.477,4.62-1.457c1.833-1.27,4.396-1.337,6.434-0.024c1.449,1.002,2.964,1.481,4.657,1.481
			c1.634,0,3.118-0.479,4.543-1.466C71.021,126.661,72.129,126.338,73.324,126.338z M19.108,113.279l-1.901,2.664
			c4.274-0.054,8.505-0.079,12.684-0.079h0.582l7.248-5.889l0.351,0.021c5.94,0.359,11.915,0.908,17.755,1.631
			c0.239-0.016,0.607,0.028,0.968,0.1c0.105-0.017,0.382,0.029,0.653,0.121c5.574,0.737,11.267,1.735,16.762,2.927
			c3.146-0.147,6.246-0.296,9.301-0.443c-8.528-2.256-17.409-4.016-26.472-5.247c-0.254-0.07-0.337-0.085-0.42-0.085
			c-0.419-0.063-0.661-0.088-0.903-0.088c-0.889-0.107-1.663-0.198-2.439-0.275l-0.812-0.098c-4.914-0.583-9.97-1.026-15.045-1.323
			l-5.347,4.454L19.108,113.279z M38.313,111.82l-4.947,4.019c11.618-0.119,22.749-0.37,33.176-0.743
			c-3.137-0.564-6.313-1.065-9.503-1.496c-0.255-0.07-0.338-0.084-0.421-0.084c-0.419-0.064-0.661-0.089-0.903-0.089
			C49.918,112.717,44.101,112.179,38.313,111.82z M14.405,97.806h38.059V4.302C37.664,19.983,24.866,51.417,14.405,97.806z
			 M92.261,105.945l-33.296-4.645V14.012l1.757-0.292L92.261,105.945z M60.771,99.728l28.831,4.024L60.771,19.443V99.728z"/>
	</g>
</g>
<g display="none">
	<g display="inline">
		<path fill="#F6CB02" d="M81.087,136c-1.982,0-3.858-0.601-5.568-1.786c-1.404-0.901-3.161-0.852-4.509,0.017
			c-3.428,2.373-7.83,2.318-11.205-0.017c-1.391-0.894-3.159-0.852-4.389,0c-3.184,2.289-7.648,2.445-11.309,0.009
			c-1.148-0.86-2.941-0.948-4.428,0.008c-3.14,2.264-7.718,2.428-11.128-0.025c-1.35-0.805-3.119-0.917-4.583,0.025
			c-1.617,1.165-3.465,1.77-5.454,1.77c-2.11,0-4.019-0.604-5.675-1.795c-1.497-0.893-3.225-0.788-4.299-0.074l-1.001-1.502
			c1.644-1.094,4.081-1.262,6.293,0.068c1.424,1.021,2.935,1.497,4.683,1.497c1.625,0,3.077-0.476,4.438-1.456
			c2.097-1.351,4.553-1.265,6.59-0.041c1.423,1.021,2.875,1.497,4.502,1.497c1.747,0,3.257-0.476,4.618-1.456
			c2.182-1.406,4.83-1.232,6.487,0.011c1.427,0.948,2.99,1.445,4.605,1.445c1.747,0,3.258-0.476,4.62-1.456
			c1.833-1.272,4.396-1.337,6.434-0.024c1.447,1.001,2.964,1.48,4.657,1.48c1.634,0,3.118-0.479,4.543-1.466
			c1.976-1.269,4.486-1.321,6.511-0.015c2.952,2.042,6.402,1.951,9.198,0.015c2.089-1.344,4.636-1.253,6.448,0
			c0.967,0.645,2.012,1.085,3.095,1.302l-0.354,1.771c-1.315-0.263-2.579-0.793-3.758-1.578c-1.258-0.871-2.983-0.922-4.427,0.008
			C85.034,135.399,83.129,136,81.087,136z M81.087,130.582c-1.982,0-3.858-0.601-5.568-1.785c-1.404-0.902-3.161-0.853-4.509,0.016
			c-3.428,2.374-7.83,2.318-11.205-0.016c-1.391-0.895-3.159-0.853-4.389,0c-3.184,2.288-7.648,2.445-11.309,0.008
			c-1.148-0.86-2.941-0.948-4.428,0.008c-3.14,2.265-7.718,2.43-11.128-0.025c-1.35-0.805-3.119-0.917-4.583,0.025
			c-1.617,1.166-3.465,1.77-5.454,1.77c-2.11,0-4.019-0.604-5.675-1.795c-1.497-0.893-3.225-0.788-4.299-0.073l-0.375,0.25
			l-0.424-0.148c-2.421-0.849-4.78-1.767-7.012-2.733L0,125.769l2.845-9.904h0.68c3.875,0,7.695,0.028,11.459,0.082l3.115-4.36
			l13.222-1.643l5.489-4.572l0.355,0.021c5.159,0.294,10.3,0.741,15.299,1.328v-7.108H12.15l0.246-1.101
			c10.943-48.944,24.515-81.6,40.339-97.063l1.534-1.499v106.978c0.521,0.056,1.041,0.12,1.562,0.187c0.256,0,0.604,0.028,0.963,0.1
			c0.105-0.016,0.382,0.03,0.653,0.121c10.848,1.457,21.591,3.728,31.773,6.715c4.22-0.298,8.314-0.593,12.297-0.89l1.361-0.103
			l-0.441,1.292c-1.869,5.494-4.073,10.729-6.55,15.561l-0.313,0.608l-0.667-0.134c-1.315-0.263-2.579-0.794-3.758-1.579
			c-1.258-0.871-2.983-0.922-4.427,0.008C85.034,129.981,83.129,130.582,81.087,130.582z M73.321,126.338
			c1.135,0,2.211,0.323,3.198,0.958c2.952,2.042,6.402,1.951,9.198,0.016c2.089-1.344,4.636-1.254,6.448,0
			c0.77,0.513,1.588,0.897,2.435,1.141c2.116-4.194,4.021-8.69,5.682-13.393c-3.604,0.268-7.301,0.535-11.097,0.801l-0.162,0.013
			l-0.007-0.002c-4.829,0.236-9.777,0.477-14.839,0.715l-0.119,0.005l-3.855,0.177c-12.136,0.476-25.283,0.777-39.086,0.898
			l-0.002,0.005h-1.224c-4.451,0-8.962,0.029-13.533,0.089h-0.928c-3.688-0.057-7.43-0.086-11.225-0.089l-2.029,7.067
			c1.851,0.781,3.786,1.531,5.765,2.233c1.605-0.861,3.854-0.916,5.891,0.309c1.424,1.021,2.935,1.497,4.683,1.497
			c1.625,0,3.077-0.477,4.438-1.457c2.097-1.351,4.553-1.265,6.59-0.04c1.423,1.021,2.875,1.497,4.502,1.497
			c1.747,0,3.257-0.477,4.618-1.457c2.182-1.406,4.83-1.234,6.487,0.011c1.427,0.948,2.99,1.446,4.605,1.446
			c1.747,0,3.258-0.477,4.62-1.457c1.833-1.27,4.396-1.337,6.434-0.024c1.447,1.002,2.964,1.481,4.657,1.481
			c1.634,0,3.118-0.479,4.543-1.466C71.021,126.661,72.129,126.338,73.321,126.338z M19.108,113.279l-1.901,2.664
			c4.274-0.054,8.505-0.079,12.684-0.079h0.582l7.248-5.889l0.351,0.021c5.94,0.359,11.915,0.908,17.755,1.631
			c0.239-0.016,0.607,0.028,0.968,0.1c0.105-0.017,0.382,0.029,0.653,0.121c5.574,0.737,11.267,1.735,16.762,2.927
			c3.146-0.147,6.246-0.296,9.301-0.443c-8.528-2.256-17.409-4.016-26.472-5.247c-0.254-0.07-0.337-0.085-0.42-0.085
			c-0.419-0.063-0.661-0.088-0.903-0.088c-0.889-0.107-1.663-0.198-2.439-0.275l-0.812-0.098c-4.914-0.583-9.97-1.026-15.045-1.323
			l-5.347,4.454L19.108,113.279z M38.313,111.82l-4.947,4.019c11.618-0.119,22.749-0.37,33.176-0.743
			c-3.137-0.564-6.313-1.065-9.503-1.496c-0.255-0.07-0.338-0.084-0.421-0.084c-0.419-0.064-0.661-0.089-0.903-0.089
			C49.918,112.717,44.101,112.179,38.313,111.82z M14.405,97.806h38.059V4.302C37.664,19.983,24.866,51.417,14.405,97.806z
			 M92.258,105.945l-33.293-4.645V14.012l1.757-0.292L92.258,105.945z M60.771,99.728l28.826,4.024L60.771,19.443V99.728z"/>
	</g>
</g>
<g>
	<g>
		<path d="M82.783,136c-1.984,0-3.858-0.602-5.574-1.788c-1.402-0.902-3.158-0.853-4.51,0.017c-3.43,2.376-7.838,2.32-11.217-0.017
			c-1.391-0.895-3.163-0.853-4.393,0c-3.187,2.292-7.656,2.448-11.319,0.009c-1.152-0.861-2.944-0.949-4.432,0.008
			c-3.144,2.267-7.725,2.431-11.138-0.024c-1.35-0.806-3.122-0.919-4.587,0.024c-1.619,1.166-3.468,1.771-5.46,1.771
			c-2.111,0-4.022-0.605-5.679-1.796c-1.56-0.929-3.325-0.786-4.587,0.024c-0.336,0.289-0.807,0.578-1.307,0.794l-0.713-1.661
			c0.341-0.146,0.661-0.345,0.953-0.588c1.994-1.294,4.379-1.44,6.647-0.079c1.425,1.021,2.937,1.499,4.686,1.499
			c1.627,0,3.081-0.478,4.443-1.459c2.098-1.352,4.558-1.265,6.597-0.04c1.424,1.021,2.877,1.499,4.505,1.499
			c1.75,0,3.261-0.478,4.624-1.459c2.183-1.407,4.833-1.233,6.493,0.011c1.428,0.95,2.993,1.448,4.609,1.448
			c1.75,0,3.261-0.478,4.625-1.459c1.834-1.272,4.4-1.337,6.438-0.024c1.451,1.003,2.969,1.483,4.663,1.483
			c1.633,0,3.121-0.48,4.545-1.468c1.977-1.271,4.49-1.322,6.517-0.016c2.959,2.044,6.412,1.954,9.211,0.016
			c2.088-1.344,4.638-1.254,6.448,0c0.206,0.151,0.411,0.267,0.636,0.356l-0.674,1.677c-0.371-0.149-0.713-0.34-1.017-0.565
			c-1.179-0.815-2.946-0.896-4.391,0.035C86.735,135.398,84.83,136,82.783,136z M82.783,130.577c-1.984,0-3.858-0.602-5.574-1.787
			c-1.402-0.902-3.158-0.853-4.51,0.016c-3.43,2.376-7.838,2.321-11.217-0.016c-1.391-0.896-3.163-0.853-4.393,0
			c-3.187,2.291-7.656,2.447-11.319,0.008c-1.152-0.86-2.944-0.948-4.432,0.008c-3.144,2.266-7.725,2.432-11.138-0.024
			c-1.35-0.805-3.122-0.918-4.587,0.024c-1.619,1.167-3.468,1.771-5.46,1.771c-2.111,0-4.022-0.604-5.679-1.796
			c-1.56-0.929-3.325-0.786-4.587,0.024c-0.336,0.29-0.807,0.579-1.307,0.794l-0.269,0.114l-0.284-0.061
			c-2.501-0.558-4.985-1.201-7.382-1.917L0,127.546v-3.88l6.655-5.019h5.409c2.081-3.06,6.254-4.641,12.418-4.701h0.43
			c3.999-1.099,6.299-2.676,6.857-4.699h-1.28l-4.608-5.422h26.445v-4.247H12.063l0.146-1.031
			c6.008-42.114,13.205-73.266,21.391-92.589l0.18-0.423l20.354-4.699v102.99h6.655l4.607,5.422h-6.815l3.955,4.472l33.074-0.225
			c2.397,0,4.243,1.13,5.494,3.354c0.921,1.839,1.542,4.423,1.916,7.939c0.159,1.893-0.777,3.223-2.634,3.764
			c-2.114,0.328-4.112,0.602-6.106,0.843l-0.234,0.029l-0.215-0.087c-0.371-0.15-0.713-0.341-1.017-0.566
			c-1.179-0.815-2.946-0.895-4.391,0.035C86.735,129.976,84.83,130.577,82.783,130.577z M75.013,126.329
			c1.135,0,2.212,0.323,3.198,0.959c2.959,2.043,6.412,1.953,9.211,0.016c2.088-1.346,4.638-1.255,6.448,0
			c0.146,0.107,0.287,0.193,0.438,0.267c1.896-0.231,3.796-0.491,5.691-0.779c0.921-0.276,1.31-0.815,1.225-1.834
			c-0.346-3.229-0.925-5.68-1.716-7.261c-0.9-1.599-2.178-2.394-3.891-2.394l-33.479,0.225h0.001l-18.876,0.142l-0.001-0.002
			l-18.771,0.087c-5.77,0.057-9.524,1.489-11.151,4.254l-0.262,0.447H7.261l-5.454,4.11v1.63c2.059,0.599,4.178,1.146,6.312,1.625
			c0.247-0.129,0.481-0.285,0.701-0.469c1.994-1.296,4.379-1.441,6.647-0.08c1.425,1.022,2.937,1.499,4.686,1.499
			c1.627,0,3.081-0.477,4.443-1.459c2.098-1.352,4.558-1.265,6.597-0.04c1.424,1.022,2.877,1.499,4.505,1.499
			c1.75,0,3.261-0.477,4.624-1.459c2.183-1.406,4.833-1.235,6.493,0.011c1.428,0.95,2.993,1.448,4.609,1.448
			c1.75,0,3.261-0.477,4.625-1.459c1.834-1.271,4.4-1.338,6.438-0.023c1.451,1.002,2.969,1.482,4.663,1.482
			c1.633,0,3.121-0.48,4.545-1.467C72.707,126.652,73.816,126.329,75.013,126.329z M33.625,109.247
			c-0.327,1.874-1.586,3.437-3.762,4.678l12.181-0.059l-3.122-4.619H33.625z M41.105,109.247l3.114,4.608l15.922-0.119l-3.973-4.489
			H41.105z M56.575,107.44h4.914l-1.536-1.808H29.79l1.536,1.808H56.575z M14.147,97.771h38.18V3.109L35.086,7.087
			C27.101,26.137,20.058,56.643,14.147,97.771z M79.144,122.896H18.798v-1.807h56.328l-2.192-2.476l1.353-1.198L79.144,122.896z
			 M92.159,105.918l-33.324-4.649V13.901l1.758-0.293L92.159,105.918z M60.642,99.695l28.855,4.028L60.642,19.338V99.695z"/>
	</g>
</g>
<g display="none">
	<g display="inline">
		<path fill="#F6CB02" d="M82.785,136c-1.986,0-3.862-0.602-5.576-1.788c-1.403-0.902-3.158-0.853-4.51,0.017
			c-3.432,2.376-7.838,2.32-11.217-0.017c-1.391-0.895-3.163-0.853-4.393,0c-3.187,2.292-7.656,2.448-11.319,0.009
			c-1.152-0.861-2.944-0.949-4.432,0.008c-3.144,2.267-7.725,2.431-11.138-0.024c-1.35-0.806-3.122-0.919-4.587,0.024
			c-1.619,1.166-3.468,1.771-5.46,1.771c-2.111,0-4.022-0.605-5.679-1.796c-1.56-0.929-3.325-0.786-4.587,0.024
			c-0.336,0.289-0.807,0.578-1.307,0.794l-0.713-1.661c0.341-0.146,0.661-0.345,0.953-0.588c1.994-1.294,4.379-1.44,6.647-0.079
			c1.425,1.021,2.937,1.499,4.686,1.499c1.627,0,3.081-0.478,4.443-1.459c2.098-1.352,4.558-1.265,6.597-0.04
			c1.424,1.021,2.877,1.499,4.505,1.499c1.75,0,3.261-0.478,4.624-1.459c2.183-1.407,4.833-1.233,6.493,0.011
			c1.428,0.95,2.993,1.448,4.609,1.448c1.75,0,3.261-0.478,4.625-1.459c1.834-1.272,4.4-1.337,6.438-0.024
			c1.451,1.003,2.969,1.483,4.663,1.483c1.635,0,3.121-0.48,4.547-1.468c1.974-1.271,4.49-1.322,6.518-0.016
			c2.954,2.044,6.409,1.954,9.206,0.016c2.09-1.344,4.64-1.254,6.455,0c0.204,0.151,0.409,0.267,0.635,0.356l-0.674,1.677
			c-0.375-0.149-0.713-0.34-1.017-0.565c-1.183-0.815-2.95-0.896-4.395,0.035C86.735,135.398,84.829,136,82.785,136z
			 M82.785,130.577c-1.986,0-3.862-0.602-5.576-1.787c-1.403-0.902-3.158-0.853-4.51,0.016c-3.432,2.376-7.838,2.321-11.217-0.016
			c-1.391-0.896-3.163-0.853-4.393,0c-3.187,2.291-7.656,2.447-11.319,0.008c-1.152-0.86-2.944-0.948-4.432,0.008
			c-3.144,2.266-7.725,2.432-11.138-0.024c-1.35-0.805-3.122-0.918-4.587,0.024c-1.619,1.167-3.468,1.771-5.46,1.771
			c-2.111,0-4.022-0.604-5.679-1.796c-1.56-0.929-3.325-0.786-4.587,0.024c-0.336,0.29-0.807,0.579-1.307,0.794l-0.269,0.114
			l-0.284-0.061c-2.501-0.558-4.985-1.201-7.382-1.917L0,127.546v-3.88l6.655-5.019h5.409c2.081-3.06,6.254-4.641,12.418-4.701h0.43
			c3.999-1.099,6.299-2.676,6.857-4.699h-1.28l-4.608-5.422h26.445v-4.247H12.063l0.146-1.031
			c6.008-42.114,13.205-73.266,21.391-92.589l0.18-0.423l20.354-4.699v102.99h6.655l4.607,5.422h-6.815l3.955,4.472l33.074-0.225
			c2.397,0,4.243,1.13,5.494,3.354c0.921,1.839,1.542,4.423,1.92,7.939c0.155,1.893-0.781,3.223-2.635,3.764
			c-2.117,0.328-4.112,0.602-6.109,0.843l-0.229,0.029l-0.216-0.087c-0.375-0.15-0.713-0.341-1.017-0.566
			c-1.183-0.815-2.95-0.895-4.395,0.035C86.735,129.976,84.829,130.577,82.785,130.577z M75.012,126.329
			c1.136,0,2.213,0.323,3.202,0.959c2.954,2.043,6.409,1.953,9.206,0.016c2.09-1.346,4.64-1.255,6.455,0
			c0.141,0.107,0.285,0.193,0.434,0.267c1.899-0.231,3.796-0.491,5.694-0.779c0.918-0.276,1.307-0.815,1.222-1.834
			c-0.346-3.229-0.925-5.68-1.716-7.261c-0.9-1.599-2.178-2.394-3.891-2.394l-33.479,0.225h0.001l-18.876,0.142l-0.001-0.002
			l-18.771,0.087c-5.77,0.057-9.524,1.489-11.151,4.254l-0.262,0.447H7.261l-5.454,4.11v1.63c2.059,0.599,4.178,1.146,6.312,1.625
			c0.247-0.129,0.481-0.285,0.701-0.469c1.994-1.296,4.379-1.441,6.647-0.08c1.425,1.022,2.937,1.499,4.686,1.499
			c1.627,0,3.081-0.477,4.443-1.459c2.098-1.352,4.558-1.265,6.597-0.04c1.424,1.022,2.877,1.499,4.505,1.499
			c1.75,0,3.261-0.477,4.624-1.459c2.183-1.406,4.833-1.235,6.493,0.011c1.428,0.95,2.993,1.448,4.609,1.448
			c1.75,0,3.261-0.477,4.625-1.459c1.834-1.271,4.4-1.338,6.438-0.023c1.451,1.002,2.969,1.482,4.663,1.482
			c1.635,0,3.121-0.48,4.547-1.467C72.71,126.652,73.816,126.329,75.012,126.329z M33.625,109.247
			c-0.327,1.874-1.586,3.437-3.762,4.678l12.181-0.059l-3.122-4.619H33.625z M41.105,109.247l3.114,4.608l15.922-0.119l-3.973-4.489
			H41.105z M56.575,107.44h4.914l-1.536-1.808H29.79l1.536,1.808H56.575z M14.147,97.771h38.18V3.109L35.086,7.087
			C27.101,26.137,20.058,56.643,14.147,97.771z M79.146,122.896H18.798v-1.807h56.33l-2.193-2.476l1.354-1.198L79.146,122.896z
			 M92.159,105.918l-33.324-4.649V13.901l1.758-0.293L92.159,105.918z M60.642,99.695l28.854,4.028L60.642,19.338V99.695z"/>
	</g>
</g>
</svg>
