<?xml version="1.0" encoding="utf-8"?>
<!-- Generator: Adobe Illustrator 21.0.2, SVG Export Plug-In . SVG Version: 6.00 Build 0)  -->
<svg version="1.1" id="Layer_1" xmlns="http://www.w3.org/2000/svg" xmlns:xlink="http://www.w3.org/1999/xlink" x="0px" y="0px"
	 viewBox="0 0 64 64" style="enable-background:new 0 0 64 64;" xml:space="preserve">
<style type="text/css">
	.st0{fill:#F6CB02;}
	.st1{fill:#FFFFFF;}
</style>
<g id="Layer0_0_1_STROKES">
	<g id="XMLID_1_">
		<g>
			<path class="st0" d="M2.7,25.6h18.5c-1.1,1.9-1.7,4.1-1.7,6.4c0,2.4,0.6,4.5,1.7,6.4H2.6c-0.4-2-0.6-4.2-0.5-6.4
				C2.1,29.8,2.3,27.6,2.7,25.6z"/>
			<path class="st0" d="M38.4,42.9v18.6c-4.1,0.8-8.7,0.8-12.7,0V42.9c1.9,1.1,4.1,1.7,6.4,1.7C34.4,44.6,36.5,44,38.4,42.9z"/>
			<path class="st0" d="M62.1,32c0,2.2-0.2,4.4-0.6,6.4H42.9c1.1-1.9,1.7-4,1.7-6.4s-0.6-4.5-1.7-6.4h18.6
				C61.9,27.7,62.1,29.8,62.1,32z"/>
			<path class="st0" d="M38.4,2.6v18.5c-1.9-1.1-4-1.7-6.3-1.7c-2.4,0-4.5,0.6-6.4,1.7V2.6C29.7,1.9,34.3,1.8,38.4,2.6z"/>
			<path class="st1" d="M14.1,5.4c-1.2-1-2.5-1.5-4-1.5C8.4,3.9,7,4.5,5.8,5.7C4.7,6.9,4.1,8.2,4.1,9.9c0,1.5,0.5,2.9,1.5,4
				c1.1-1.6,2.4-3.1,3.8-4.5C10.9,7.9,12.5,6.6,14.1,5.4z M10.1,60c1.5,0,2.8-0.5,3.9-1.4c-1.6-1.1-3.1-2.4-4.6-3.8
				c-1.5-1.5-2.8-3.1-3.9-4.7c-1,1.1-1.4,2.4-1.4,3.9c0,1.7,0.6,3.1,1.7,4.2C7,59.4,8.4,60,10.1,60z M19.5,32c0-2.3,0.6-4.5,1.7-6.4
				H2.7c-0.4,2-0.6,4.2-0.6,6.4c-0.1,2.2,0.1,4.4,0.5,6.4h18.6C20.1,36.5,19.5,34.4,19.5,32z M23.6,22.7V3.1C21,3.9,18.5,5,16.1,6.5
				c-1.9,1.2-3.7,2.7-5.3,4.4c-1.6,1.6-3,3.3-4.2,5.1c-1.6,2.4-2.7,5-3.5,7.7h19.5c0.2-0.2,0.4-0.4,0.5-0.5
				C23.3,23,23.5,22.8,23.6,22.7z M23.8,61.1V41.4c-0.2-0.2-0.4-0.3-0.5-0.5c-0.2-0.2-0.4-0.4-0.5-0.5H3.1c0.8,2.7,1.9,5.3,3.5,7.7
				l0.1,0.2c1.1,1.8,2.5,3.5,4.1,5.1c1.5,1.4,3.1,2.8,4.8,3.9l0.5,0.3C18.5,59.1,21,60.3,23.8,61.1z M59.9,54.1
				c0-1.5-0.5-2.8-1.5-3.9c-1.1,1.6-2.4,3.2-3.9,4.6c-1.3,1.3-2.8,2.6-4.4,3.8c1.1,1,2.4,1.4,3.9,1.4c1.7,0,3-0.6,4.2-1.7
				C59.4,57.1,59.9,55.8,59.9,54.1z M58.5,13.9c1-1.1,1.5-2.5,1.5-4c0-1.7-0.6-3.1-1.7-4.2c-1.2-1.2-2.6-1.8-4.2-1.8
				c-1.6,0-3,0.5-4.1,1.6c1.6,1.1,3.2,2.4,4.7,3.9C56.1,10.8,57.4,12.3,58.5,13.9z M38.4,21.1V2.6c-4.1-0.8-8.7-0.7-12.7,0v18.5
				c1.9-1.1,4-1.7,6.4-1.7C34.4,19.4,36.5,20,38.4,21.1z M38.4,61.5V42.9c-1.9,1.1-4,1.7-6.3,1.7c-2.3,0-4.5-0.6-6.4-1.7v18.6
				C29.7,62.3,34.3,62.3,38.4,61.5z M40.3,38.7c1.6-1.9,2.4-4.1,2.4-6.7s-0.8-4.8-2.4-6.7l-0.4-0.5c-0.1-0.1-0.2-0.2-0.2-0.3
				c-0.1-0.1-0.2-0.2-0.3-0.3l-0.5-0.4c-1.9-1.6-4.1-2.4-6.7-2.4c-2.4,0-4.5,0.7-6.4,2.1l-0.4,0.3c-0.2,0.2-0.5,0.4-0.7,0.7
				l-0.1,0.1c-0.3,0.2-0.5,0.5-0.7,0.7l-0.3,0.4c-1.4,1.8-2.1,3.9-2.1,6.4c0,2.6,0.8,4.8,2.4,6.7c0.2,0.2,0.5,0.5,0.7,0.8
				c0.2,0.2,0.5,0.5,0.7,0.7l0.4,0.2c1.8,1.4,3.9,2.1,6.4,2.1c2.4,0,4.5-0.7,6.3-2.1l0.4-0.3c0.3-0.2,0.5-0.4,0.8-0.7L40.3,38.7z
				 M42.9,38.4h18.6c0.4-2,0.6-4.2,0.6-6.4s-0.2-4.3-0.6-6.4H42.9c1.1,1.9,1.7,4,1.7,6.4S44,36.5,42.9,38.4z M48,57.5
				c1.8-1.2,3.6-2.6,5.2-4.3c1.6-1.7,3.1-3.4,4.3-5.3c1.5-2.4,2.7-5,3.4-7.7H41.4L40.9,41c-0.2,0.1-0.4,0.3-0.6,0.4V61
				C43,60.2,45.6,59.1,48,57.5z M53.3,10.8c-1.5-1.6-3.2-2.9-4.9-4L48,6.5c-2.4-1.5-5-2.6-7.7-3.4v19.5c0.2,0.2,0.4,0.4,0.6,0.6
				c0.2,0.2,0.4,0.3,0.5,0.5H61c-0.8-2.8-2-5.4-3.5-7.7l-0.3-0.5C56.1,13.9,54.8,12.3,53.3,10.8z M63.3,24.5
				c0.5,2.4,0.8,4.9,0.8,7.6c0,2.6-0.3,5.2-0.8,7.6c-0.7,3.1-1.9,6.1-3.6,8.8C61.2,50,62,51.9,62,54c0,2.2-0.8,4.1-2.3,5.6
				c-1.6,1.5-3.5,2.3-5.6,2.3c-2.2,0-4.1-0.8-5.6-2.3c-2.7,1.7-5.7,2.9-8.9,3.6c-2.4,0.6-5,0.9-7.6,0.9s-5.2-0.3-7.6-0.8
				c-3.1-0.7-6.1-1.9-8.8-3.6C14,61.2,12.2,62,10,62s-4.1-0.8-5.7-2.3C2.8,58.2,2,56.3,2,54.1c0-2.2,0.8-4.1,2.3-5.6
				c-1.7-2.7-2.8-5.7-3.6-8.8c-0.4-2.5-0.7-5-0.7-7.6c0-2.6,0.3-5.2,0.9-7.6c0.7-3.2,1.9-6.1,3.6-8.9C2.9,14,2.1,12.1,2.1,9.9
				s0.8-4.1,2.3-5.6C6,2.7,7.9,1.9,10.1,1.9s4.1,0.8,5.6,2.4c0,0,0,0,0.1,0.1c2.7-1.6,5.6-2.8,8.7-3.5c4.8-1.1,10.2-1.1,15.1,0
				c3.1,0.7,6,1.9,8.7,3.5l0.1-0.1c1.6-1.6,3.5-2.4,5.7-2.4c2.2,0,4.1,0.8,5.6,2.4C61.2,5.8,62,7.7,62,9.9s-0.8,4.1-2.3,5.6
				l-0.1,0.1C61.3,18.3,62.5,21.3,63.3,24.5z"/>
		</g>
		<g>
		</g>
	</g>
</g>
</svg>
