<?xml version="1.0" encoding="utf-8"?>
<!-- Generator: Adobe Illustrator 16.0.3, SVG Export Plug-In . SVG Version: 6.00 Build 0)  -->
<!DOCTYPE svg PUBLIC "-//W3C//DTD SVG 1.1//EN" "http://www.w3.org/Graphics/SVG/1.1/DTD/svg11.dtd">
<svg version="1.1" id="Layer_1" xmlns="http://www.w3.org/2000/svg" xmlns:xlink="http://www.w3.org/1999/xlink" x="0px" y="0px"
	 width="103px" height="136px" viewBox="0 0 103 136" enable-background="new 0 0 103 136" xml:space="preserve">
<g display="none">
	<g display="inline">
		<path d="M80.539,136c-1.942,0-3.773-0.588-5.45-1.746c-1.369-0.88-3.084-0.835-4.404,0.015c-3.351,2.323-7.655,2.271-10.958-0.015
			c-1.361-0.874-3.091-0.835-4.293,0c-3.113,2.238-7.484,2.39-11.06,0.009c-1.123-0.844-2.876-0.928-4.329,0.006
			c-3.076,2.215-7.55,2.375-10.885-0.025c-1.319-0.785-3.049-0.895-4.481,0.025c-1.581,1.14-3.388,1.731-5.335,1.731
			c-2.063,0-3.929-0.592-5.548-1.757c-1.523-0.906-3.248-0.767-4.481,0.025C7.733,135.408,5.926,136,3.98,136
			c-0.885,0-1.754-0.096-2.583-0.287l0.396-1.721c0.699,0.158,1.435,0.241,2.187,0.241c1.591,0,3.009-0.465,4.341-1.425
			c1.854-1.192,4.229-1.367,6.445-0.038c1.392,0.998,2.869,1.463,4.578,1.463c1.591,0,3.011-0.465,4.342-1.425
			c2.05-1.319,4.453-1.236,6.445-0.038c1.392,0.998,2.812,1.463,4.402,1.463c1.708,0,3.186-0.465,4.517-1.425
			c2.134-1.372,4.723-1.205,6.345,0.012c1.394,0.928,2.924,1.413,4.504,1.413c1.708,0,3.184-0.465,4.515-1.425
			c1.796-1.244,4.302-1.308,6.293-0.023c1.417,0.979,2.899,1.448,4.557,1.448c1.594,0,3.049-0.469,4.442-1.433
			c1.933-1.242,4.384-1.291,6.364-0.016c2.887,1.995,6.26,1.908,8.998,0.016c1.853-1.194,4.117-1.219,5.782-0.314l-0.847,1.552
			c-1.113-0.606-2.669-0.595-3.955,0.23C84.399,135.412,82.538,136,80.539,136z M80.539,130.703c-1.942,0-3.773-0.589-5.45-1.749
			c-1.369-0.88-3.084-0.831-4.404,0.018c-3.351,2.32-7.655,2.27-10.958-0.018c-1.361-0.872-3.091-0.831-4.293,0
			c-3.113,2.238-7.484,2.391-11.06,0.009c-1.123-0.84-2.876-0.927-4.329,0.009c-3.076,2.214-7.55,2.374-10.885-0.025
			c-1.319-0.785-3.049-0.896-4.481,0.025c-1.581,1.14-3.388,1.731-5.335,1.731c-2.063,0-3.929-0.592-5.548-1.757
			c-1.523-0.906-3.248-0.767-4.481,0.025c-1.582,1.14-3.389,1.731-5.334,1.731c-0.904,0-1.785-0.116-2.616-0.342l-1.368-0.373
			l5.176-5.874c1.663-2.049,5.566-3.567,11.909-4.615c0.622-0.104,1.291-0.205,2.006-0.307l2.25-2.911l0.354-0.052
			c1.27-0.187,2.657-0.38,4.162-0.575l7.412-1.016c8.801-1.357,11.991-3.012,13.063-4.247H28.597l-4.986-5.121H28.1
			c-2.445-2.35-5.17-5.484-8.132-9.354l-1.087-1.42h8.286l0.244,0.202c1.626,1.333,3.922,3.012,6.825,4.984
			c2.792,1.937,6.189,3.815,10.113,5.587h7.405c9.718,0.274,20.12,2.069,30.939,5.336c3.115,0.959,6.323,2.052,9.538,3.248
			c3.498,0.427,6.66,1.059,9.398,1.872l1.312,0.39l-0.894,1.034c-4.28,4.95-7.993,8.812-11.036,11.477l-0.461,0.403l-0.539-0.286
			c-1.147-0.618-2.684-0.591-3.962,0.228C84.399,130.114,82.538,130.703,80.539,130.703z M72.945,126.552
			c1.109,0,2.161,0.315,3.124,0.937c2.887,1.996,6.26,1.909,8.998,0.016c1.642-1.058,3.605-1.205,5.206-0.58
			c2.677-2.399,5.875-5.716,9.52-9.877c-2.352-0.615-4.996-1.103-7.881-1.451l0.003-0.02l-0.005,0.018
			c-10.363-1.275-24.375-0.86-41.642,1.238c-8.658,1.059-15.933,1.994-21.62,2.779c-3.533,0.469-6.514,0.896-8.947,1.277
			l-2.194,0.346l0.014-0.018c-0.051,0.007-0.102,0.018-0.152,0.024c-7.245,1.196-9.899,2.842-10.849,4.013L3.3,128.91
			c1.777,0.133,3.497-0.302,5.021-1.397c1.854-1.193,4.229-1.37,6.445-0.04c1.392,0.997,2.869,1.463,4.578,1.463
			c1.591,0,3.011-0.466,4.342-1.423c2.05-1.321,4.453-1.237,6.445-0.04c1.392,0.997,2.812,1.463,4.402,1.463
			c1.708,0,3.186-0.466,4.517-1.423c2.134-1.376,4.723-1.207,6.345,0.01c1.394,0.928,2.924,1.413,4.504,1.413
			c1.708,0,3.184-0.466,4.515-1.423c1.796-1.242,4.302-1.308,6.293-0.024c1.417,0.979,2.899,1.447,4.557,1.447
			c1.594,0,3.049-0.469,4.442-1.432C70.695,126.867,71.774,126.552,72.945,126.552z M22.298,117.927l-0.686,0.884
			c1.982-0.294,4.249-0.612,6.8-0.949c5.691-0.787,12.973-1.724,21.642-2.782c13.843-1.682,25.622-2.289,35.148-1.817
			c-1.018-0.336-2.025-0.657-3.025-0.966c-10.664-3.22-20.912-4.99-30.45-5.259H27.794l1.548,1.589h19.34l-0.116,0.985
			c-0.362,3.096-5.144,5.247-15.046,6.774l-7.433,1.019C24.725,117.582,23.463,117.758,22.298,117.927z M30.71,105.271h9.545
			c-2.631-1.333-4.982-2.716-7.021-4.131c-2.798-1.901-5.052-3.543-6.699-4.876h-4.063C25.524,100.137,28.289,103.16,30.71,105.271z
			"/>
	</g>
</g>
<g display="none">
	<g id="XMLID_1_" display="inline">
		<g>
			<path fill="#F6CB02" d="M17.51,121.23l2.19-0.341c2.44-0.38,5.42-0.81,8.95-1.279c5.69-0.78,12.96-1.721,21.62-2.78
				c17.27-2.1,31.28-2.51,41.64-1.24c2.89,0.351,5.53,0.84,7.88,1.45c-3.64,4.17-6.84,7.479-9.521,9.88
				c-1.6-0.62-3.56-0.47-5.199,0.58c-2.74,1.89-6.11,1.98-9-0.01c-0.971-0.62-2.021-0.94-3.12-0.94c-1.17,0-2.26,0.32-3.25,0.95
				c-1.391,0.97-2.84,1.44-4.44,1.44c-1.649,0-3.14-0.471-4.55-1.45c-2-1.28-4.5-1.221-6.29,0.02c-1.34,0.96-2.81,1.431-4.52,1.431
				c-1.58,0-3.11-0.49-4.51-1.421c-1.62-1.21-4.21-1.39-6.34-0.01c-1.33,0.96-2.81,1.431-4.52,1.431c-1.59,0-3.01-0.471-4.4-1.471
				c-1.99-1.2-4.39-1.279-6.44,0.04c-1.34,0.96-2.75,1.431-4.35,1.431c-1.71,0-3.18-0.471-4.57-1.471
				c-2.22-1.33-4.6-1.149-6.45,0.04c-1.52,1.101-3.24,1.53-5.02,1.4l3.22-3.66c0.95-1.17,3.6-2.81,10.85-4.01
				c0.05-0.01,0.1-0.021,0.15-0.021L17.51,121.23z"/>
			<path fill="#F6CB02" d="M22.3,117.93c1.16-0.17,2.43-0.35,3.79-0.529l7.43-1.011c9.9-1.529,14.68-3.68,15.05-6.779l0.11-0.98
				H29.34l-1.55-1.59h23.94c9.54,0.27,19.78,2.03,30.45,5.25c1,0.31,2.011,0.63,3.021,0.97c-9.521-0.47-21.3,0.141-35.15,1.82
				c-8.66,1.06-15.95,1.99-21.64,2.78c-2.55,0.34-4.82,0.659-6.8,0.949L22.3,117.93z"/>
			<path fill="#F6CB02" d="M40.26,105.27h-9.55c-2.42-2.109-5.19-5.14-8.24-9.01h4.07c1.64,1.34,3.9,2.98,6.69,4.88
				C35.27,102.55,37.62,103.94,40.26,105.27z"/>
			<path d="M29.16,134.24c-1.32-0.78-3.05-0.891-4.48,0.029c-1.58,1.141-3.39,1.73-5.34,1.73c-2.06,0-3.93-0.59-5.54-1.76
				c-1.53-0.9-3.25-0.76-4.49,0.029C7.73,135.41,5.93,136,3.98,136c-0.89,0-1.75-0.1-2.58-0.29l0.39-1.72
				c0.7,0.16,1.44,0.24,2.19,0.24c1.59,0,3.01-0.461,4.34-1.421c1.85-1.189,4.23-1.369,6.45-0.04c1.39,1,2.86,1.461,4.57,1.461
				c1.6,0,3.01-0.461,4.35-1.421c2.05-1.319,4.45-1.239,6.44-0.04c1.39,1,2.81,1.461,4.4,1.461c1.71,0,3.19-0.461,4.52-1.421
				c2.13-1.38,4.72-1.21,6.34,0.011c1.4,0.93,2.93,1.41,4.51,1.41c1.71,0,3.18-0.461,4.52-1.421c1.79-1.25,4.29-1.31,6.29-0.02
				c1.41,0.97,2.9,1.44,4.55,1.44c1.601,0,3.05-0.471,4.44-1.431c1.93-1.24,4.39-1.29,6.37-0.01c2.89,1.99,6.26,1.9,9,0.01
				c1.85-1.189,4.109-1.22,5.779-0.31L90,134.04c-1.11-0.61-2.67-0.6-3.95,0.229C84.4,135.41,82.54,136,80.54,136
				c-1.94,0-3.771-0.59-5.45-1.75c-1.37-0.88-3.09-0.83-4.41,0.02c-3.35,2.32-7.649,2.271-10.949-0.02
				c-1.36-0.87-3.091-0.83-4.301,0c-3.109,2.24-7.479,2.39-11.06,0.01c-1.12-0.84-2.87-0.93-4.33,0.01
				C36.97,136.48,32.49,136.64,29.16,134.24z"/>
			<path d="M26.54,96.26h-4.07c3.05,3.87,5.82,6.9,8.24,9.01h9.55c-2.64-1.329-4.99-2.72-7.03-4.13
				C30.44,99.24,28.18,97.6,26.54,96.26z M23.69,127.51c2.05-1.319,4.45-1.24,6.44-0.04c1.39,1,2.81,1.471,4.4,1.471
				c1.71,0,3.19-0.471,4.52-1.431c2.13-1.38,4.72-1.2,6.34,0.01c1.4,0.931,2.93,1.421,4.51,1.421c1.71,0,3.18-0.471,4.52-1.431
				c1.79-1.24,4.29-1.3,6.29-0.02c1.41,0.979,2.9,1.45,4.55,1.45c1.601,0,3.05-0.471,4.44-1.44c0.99-0.63,2.08-0.95,3.25-0.95
				c1.1,0,2.149,0.32,3.12,0.94c2.89,1.99,6.26,1.899,9,0.01c1.64-1.05,3.6-1.2,5.199-0.58c2.681-2.4,5.881-5.71,9.521-9.88
				c-2.35-0.61-4.99-1.1-7.88-1.45c-10.36-1.27-24.37-0.859-41.64,1.24c-8.66,1.06-15.93,2-21.62,2.78
				c-3.53,0.47-6.51,0.899-8.95,1.279l-2.19,0.341l0.01-0.011c-0.05,0-0.1,0.011-0.15,0.021c-7.25,1.2-9.9,2.84-10.85,4.01
				l-3.22,3.66c1.78,0.13,3.5-0.3,5.02-1.4c1.85-1.189,4.23-1.37,6.45-0.04c1.39,1,2.86,1.471,4.57,1.471
				C20.94,128.94,22.35,128.47,23.69,127.51z M26.09,117.4c-1.36,0.18-2.63,0.359-3.79,0.529l-0.69,0.88
				c1.98-0.29,4.25-0.609,6.8-0.949c5.69-0.79,12.98-1.721,21.64-2.78c13.851-1.68,25.63-2.29,35.15-1.82
				c-1.01-0.34-2.021-0.66-3.021-0.97c-10.67-3.22-20.91-4.98-30.45-5.25H27.79l1.55,1.59h19.34l-0.11,0.98
				c-0.37,3.1-5.15,5.25-15.05,6.779L26.09,117.4z M18.88,94.5h8.29l0.24,0.2c1.63,1.33,3.92,3.01,6.82,4.979
				c2.8,1.94,6.19,3.82,10.12,5.59h7.4c9.72,0.271,20.12,2.07,30.94,5.341c3.119,0.949,6.319,2.05,9.54,3.239
				c3.5,0.431,6.659,1.061,9.399,1.881l1.311,0.39l-0.891,1.03c-4.28,4.949-8,8.81-11.04,11.479l-0.46,0.4l-0.54-0.29
				c-1.149-0.61-2.68-0.59-3.96,0.229c-1.649,1.141-3.51,1.73-5.51,1.73c-1.94,0-3.771-0.59-5.45-1.75
				c-1.37-0.88-3.09-0.83-4.41,0.02c-3.35,2.32-7.649,2.271-10.949-0.02c-1.36-0.87-3.091-0.83-4.301,0
				c-3.109,2.24-7.479,2.39-11.06,0.01c-1.12-0.84-2.87-0.92-4.33,0.01c-3.07,2.221-7.55,2.37-10.88-0.02
				c-1.32-0.79-3.05-0.9-4.48,0.02c-1.58,1.141-3.39,1.73-5.34,1.73c-2.06,0-3.93-0.59-5.54-1.75c-1.53-0.91-3.25-0.771-4.49,0.02
				c-1.58,1.141-3.38,1.73-5.33,1.73c-0.9,0-1.79-0.12-2.62-0.34L0,129.99l5.17-5.88c1.66-2.04,5.57-3.57,11.91-4.61
				c0.62-0.1,1.29-0.21,2.01-0.31l2.25-2.91l0.35-0.05c1.27-0.19,2.66-0.381,4.16-0.58l7.41-1.011c8.81-1.359,12-3.01,13.07-4.25
				H28.6l-4.99-5.12h4.49c-2.45-2.35-5.17-5.489-8.13-9.35L18.88,94.5z"/>
		</g>
		<g>
		</g>
	</g>
</g>
<g display="none">
	<g display="inline">
		<path d="M81.087,136c-1.982,0-3.855-0.601-5.568-1.786c-1.4-0.901-3.158-0.852-4.509,0.017c-3.425,2.373-7.826,2.318-11.205-0.017
			c-1.391-0.894-3.159-0.852-4.389,0c-3.184,2.289-7.648,2.445-11.309,0.009c-1.148-0.86-2.941-0.948-4.428,0.008
			c-3.14,2.264-7.718,2.428-11.128-0.025c-1.35-0.805-3.119-0.917-4.583,0.025c-1.617,1.165-3.465,1.77-5.454,1.77
			c-2.11,0-4.019-0.604-5.675-1.795c-1.497-0.893-3.225-0.788-4.299-0.074l-1.001-1.502c1.644-1.094,4.081-1.262,6.293,0.068
			c1.424,1.021,2.935,1.497,4.683,1.497c1.625,0,3.077-0.476,4.438-1.456c2.097-1.351,4.553-1.265,6.59-0.041
			c1.423,1.021,2.875,1.497,4.502,1.497c1.747,0,3.257-0.476,4.618-1.456c2.182-1.406,4.83-1.232,6.487,0.011
			c1.427,0.948,2.99,1.445,4.605,1.445c1.747,0,3.258-0.476,4.62-1.456c1.833-1.272,4.396-1.337,6.434-0.024
			c1.449,1.001,2.964,1.48,4.657,1.48c1.634,0,3.118-0.479,4.543-1.466c1.976-1.269,4.486-1.321,6.511-0.015
			c2.952,2.042,6.402,1.951,9.203,0.015c2.084-1.344,4.634-1.253,6.443,0c0.967,0.645,2.015,1.085,3.095,1.302l-0.354,1.771
			c-1.315-0.263-2.579-0.793-3.758-1.578c-1.255-0.871-2.983-0.922-4.427,0.008C85.034,135.399,83.133,136,81.087,136z
			 M81.087,130.582c-1.982,0-3.855-0.601-5.568-1.785c-1.4-0.902-3.158-0.853-4.509,0.016c-3.425,2.374-7.826,2.318-11.205-0.016
			c-1.391-0.895-3.159-0.853-4.389,0c-3.184,2.288-7.648,2.445-11.309,0.008c-1.148-0.86-2.941-0.948-4.428,0.008
			c-3.14,2.265-7.718,2.43-11.128-0.025c-1.35-0.805-3.119-0.917-4.583,0.025c-1.617,1.166-3.465,1.77-5.454,1.77
			c-2.11,0-4.019-0.604-5.675-1.795c-1.497-0.893-3.225-0.788-4.299-0.073l-0.375,0.25l-0.424-0.148
			c-2.421-0.849-4.78-1.767-7.012-2.733L0,125.769l2.845-9.904h0.68c3.875,0,7.695,0.028,11.459,0.082l3.115-4.36l13.222-1.643
			l5.489-4.572l0.355,0.021c5.159,0.294,10.3,0.741,15.299,1.328v-7.108H12.15l0.246-1.101c10.943-48.944,24.515-81.6,40.339-97.063
			l1.534-1.499v106.978c0.521,0.056,1.041,0.12,1.562,0.187c0.256,0,0.604,0.028,0.963,0.1c0.105-0.016,0.382,0.03,0.653,0.121
			c10.848,1.457,21.591,3.728,31.777,6.715c4.216-0.298,8.313-0.593,12.293-0.89l1.364-0.103l-0.44,1.292
			c-1.873,5.494-4.077,10.729-6.554,15.561l-0.311,0.608l-0.67-0.134c-1.315-0.263-2.579-0.794-3.758-1.579
			c-1.255-0.871-2.983-0.922-4.427,0.008C85.034,129.981,83.133,130.582,81.087,130.582z M73.324,126.338
			c1.132,0,2.208,0.323,3.195,0.958c2.952,2.042,6.402,1.951,9.203,0.016c2.084-1.344,4.634-1.254,6.443,0
			c0.77,0.513,1.588,0.897,2.438,1.141c2.112-4.194,4.017-8.69,5.678-13.393c-3.604,0.268-7.301,0.535-11.093,0.801l-0.163,0.013
			l-0.01-0.002c-4.829,0.236-9.773,0.477-14.839,0.715l-0.119,0.005l-3.855,0.177c-12.136,0.476-25.283,0.777-39.086,0.898
			l-0.002,0.005h-1.224c-4.451,0-8.962,0.029-13.533,0.089h-0.928c-3.688-0.057-7.43-0.086-11.225-0.089l-2.029,7.067
			c1.851,0.781,3.786,1.531,5.765,2.233c1.605-0.861,3.854-0.916,5.891,0.309c1.424,1.021,2.935,1.497,4.683,1.497
			c1.625,0,3.077-0.477,4.438-1.457c2.097-1.351,4.553-1.265,6.59-0.04c1.423,1.021,2.875,1.497,4.502,1.497
			c1.747,0,3.257-0.477,4.618-1.457c2.182-1.406,4.83-1.234,6.487,0.011c1.427,0.948,2.99,1.446,4.605,1.446
			c1.747,0,3.258-0.477,4.62-1.457c1.833-1.27,4.396-1.337,6.434-0.024c1.449,1.002,2.964,1.481,4.657,1.481
			c1.634,0,3.118-0.479,4.543-1.466C71.021,126.661,72.129,126.338,73.324,126.338z M19.108,113.279l-1.901,2.664
			c4.274-0.054,8.505-0.079,12.684-0.079h0.582l7.248-5.889l0.351,0.021c5.94,0.359,11.915,0.908,17.755,1.631
			c0.239-0.016,0.607,0.028,0.968,0.1c0.105-0.017,0.382,0.029,0.653,0.121c5.574,0.737,11.267,1.735,16.762,2.927
			c3.146-0.147,6.246-0.296,9.301-0.443c-8.528-2.256-17.409-4.016-26.472-5.247c-0.254-0.07-0.337-0.085-0.42-0.085
			c-0.419-0.063-0.661-0.088-0.903-0.088c-0.889-0.107-1.663-0.198-2.439-0.275l-0.812-0.098c-4.914-0.583-9.97-1.026-15.045-1.323
			l-5.347,4.454L19.108,113.279z M38.313,111.82l-4.947,4.019c11.618-0.119,22.749-0.37,33.176-0.743
			c-3.137-0.564-6.313-1.065-9.503-1.496c-0.255-0.07-0.338-0.084-0.421-0.084c-0.419-0.064-0.661-0.089-0.903-0.089
			C49.918,112.717,44.101,112.179,38.313,111.82z M14.405,97.806h38.059V4.302C37.664,19.983,24.866,51.417,14.405,97.806z
			 M92.261,105.945l-33.296-4.645V14.012l1.757-0.292L92.261,105.945z M60.771,99.728l28.831,4.024L60.771,19.443V99.728z"/>
	</g>
</g>
<g>
	<g id="XMLID_2_">
		<g>
			<path fill="#F6CB02" d="M94.6,128.45c-0.85-0.24-1.659-0.63-2.43-1.141c-1.82-1.25-4.36-1.34-6.45,0
				c-2.8,1.94-6.25,2.03-9.2-0.01c-0.989-0.64-2.06-0.96-3.199-0.96c-1.19,0-2.301,0.32-3.311,0.97
				c-1.43,0.99-2.91,1.471-4.54,1.471c-1.7,0-3.21-0.48-4.66-1.48c-2.04-1.319-4.6-1.25-6.43,0.021c-1.37,0.979-2.88,1.46-4.62,1.46
				c-1.62,0-3.18-0.5-4.61-1.45c-1.66-1.24-4.31-1.42-6.49-0.01c-1.36,0.979-2.87,1.46-4.62,1.46c-1.62,0-3.07-0.48-4.5-1.5
				c-2.03-1.221-4.49-1.311-6.59,0.04c-1.36,0.979-2.81,1.46-4.44,1.46c-1.74,0-3.25-0.48-4.68-1.5
				c-2.04-1.221-4.28-1.17-5.89-0.311c-1.98-0.7-3.91-1.45-5.76-2.229l2.02-7.07c3.8,0,7.54,0.03,11.23,0.09h0.93
				c4.57-0.06,9.08-0.09,13.53-0.09h1.22h0.01c13.8-0.13,26.95-0.43,39.08-0.9l3.859-0.18h0.12c5.061-0.24,10.011-0.479,14.84-0.72
				l0.171-0.01c3.79-0.271,7.489-0.53,11.09-0.801C98.62,119.76,96.72,124.26,94.6,128.45z"/>
			<path fill="#F6CB02" d="M53.28,108.64c0.77,0.07,1.55,0.16,2.43,0.271c0.25,0,0.49,0.03,0.91,0.09c0.08,0,0.16,0.01,0.42,0.08
				c9.06,1.24,17.94,3,26.47,5.25c-3.05,0.15-6.149,0.3-9.3,0.45c-5.5-1.2-11.19-2.19-16.76-2.931c-0.271-0.09-0.55-0.14-0.66-0.119
				c-0.36-0.07-0.72-0.12-0.96-0.101c-5.84-0.72-11.82-1.27-17.76-1.63l-0.35-0.02l-7.25,5.88h-0.58c-4.18,0-8.41,0.029-12.68,0.08
				l1.9-2.66l12.96-1.61l5.35-4.45c5.07,0.29,10.13,0.74,15.04,1.32L53.28,108.64z"/>
			<polygon fill="#F6CB02" points="60.77,19.44 89.6,103.75 60.77,99.73 			"/>
			<path fill="#F6CB02" d="M52.46,4.3v93.51H14.4C24.87,51.42,37.66,19.98,52.46,4.3z"/>
			<path d="M89.6,103.75L60.77,19.44V99.73L89.6,103.75z M60.72,13.72l31.54,92.23l-33.3-4.65V14.01L60.72,13.72z"/>
			<path d="M59.8,134.21c-1.39-0.89-3.149-0.85-4.38,0c-3.189,2.29-7.65,2.45-11.31,0.01c-1.15-0.859-2.94-0.95-4.43,0.011
				c-3.14,2.26-7.72,2.43-11.13-0.021c-1.35-0.81-3.12-0.92-4.58,0.021c-1.62,1.17-3.47,1.77-5.46,1.77c-2.11,0-4.01-0.6-5.67-1.79
				c-1.5-0.9-3.23-0.79-4.3-0.08l-1-1.5c1.64-1.09,4.08-1.26,6.29,0.07c1.43,1.02,2.94,1.49,4.68,1.49c1.63,0,3.08-0.471,4.44-1.45
				c2.1-1.351,4.56-1.271,6.59-0.04c1.43,1.02,2.88,1.49,4.5,1.49c1.75,0,3.26-0.471,4.62-1.45c2.18-1.41,4.83-1.23,6.49,0.01
				c1.43,0.95,2.99,1.44,4.61,1.44c1.74,0,3.25-0.471,4.62-1.45c1.83-1.271,4.39-1.34,6.43-0.03c1.45,1,2.96,1.48,4.66,1.48
				c1.63,0,3.11-0.48,4.54-1.46c1.971-1.271,4.49-1.32,6.51-0.021c2.95,2.05,6.4,1.96,9.2,0.021c2.09-1.351,4.63-1.25,6.45,0
				c0.96,0.64,2.01,1.079,3.09,1.3l-0.35,1.77c-1.32-0.26-2.58-0.79-3.76-1.58c-1.261-0.87-2.98-0.92-4.431,0.011
				c-1.689,1.17-3.59,1.77-5.63,1.77c-1.99,0-3.859-0.6-5.57-1.79c-1.409-0.9-3.159-0.85-4.51,0.021
				C67.58,136.6,63.18,136.55,59.8,134.21z"/>
			<path d="M55.71,113.43c-5.79-0.71-11.61-1.25-17.4-1.609l-4.94,4.02c11.61-0.12,22.75-0.37,33.17-0.74
				c-3.13-0.569-6.31-1.069-9.5-1.5c-0.26-0.069-0.34-0.08-0.42-0.08C56.2,113.45,55.96,113.43,55.71,113.43z M52.46,97.81V4.3
				C37.66,19.98,24.87,51.42,14.4,97.81H52.46z M70.2,116.77c-12.13,0.471-25.28,0.771-39.08,0.9h-0.01h-1.22
				c-4.45,0-8.96,0.03-13.53,0.09h-0.93c-3.69-0.06-7.43-0.09-11.23-0.09l-2.02,7.07c1.85,0.779,3.78,1.529,5.76,2.229
				c1.61-0.859,3.85-0.91,5.89,0.311c1.43,1.02,2.94,1.5,4.68,1.5c1.63,0,3.08-0.48,4.44-1.46c2.1-1.351,4.56-1.261,6.59-0.04
				c1.43,1.02,2.88,1.5,4.5,1.5c1.75,0,3.26-0.48,4.62-1.46c2.18-1.41,4.83-1.23,6.49,0.01c1.43,0.95,2.99,1.45,4.61,1.45
				c1.74,0,3.25-0.48,4.62-1.46c1.83-1.271,4.39-1.34,6.43-0.021c1.45,1,2.96,1.48,4.66,1.48c1.63,0,3.11-0.48,4.54-1.471
				c1.01-0.649,2.12-0.97,3.311-0.97c1.14,0,2.21,0.32,3.199,0.96c2.95,2.04,6.4,1.95,9.2,0.01c2.09-1.34,4.63-1.25,6.45,0
				c0.771,0.511,1.58,0.9,2.43,1.141c2.12-4.19,4.021-8.69,5.681-13.391c-3.601,0.271-7.3,0.53-11.09,0.801l-0.171,0.01
				c-4.829,0.24-9.779,0.479-14.84,0.72h-0.12L70.2,116.77z M55.71,108.91c-0.88-0.11-1.66-0.2-2.43-0.271l-0.82-0.1
				c-4.91-0.58-9.97-1.03-15.04-1.32l-5.35,4.45l-12.96,1.61l-1.9,2.66c4.27-0.051,8.5-0.08,12.68-0.08h0.58l7.25-5.88l0.35,0.02
				c5.94,0.36,11.92,0.91,17.76,1.63c0.24-0.02,0.6,0.03,0.96,0.101c0.11-0.021,0.39,0.029,0.66,0.119
				c5.569,0.74,11.26,1.73,16.76,2.931c3.15-0.15,6.25-0.3,9.3-0.45c-8.529-2.25-17.41-4.01-26.47-5.25
				c-0.26-0.07-0.34-0.08-0.42-0.08C56.2,108.94,55.96,108.91,55.71,108.91z M54.27,106.93c0.521,0.051,1.04,0.12,1.561,0.181
				c0.26,0,0.61,0.029,0.96,0.1c0.11-0.01,0.39,0.03,0.66,0.12c10.84,1.46,21.59,3.729,31.77,6.72c4.221-0.3,8.32-0.59,12.3-0.89
				l1.36-0.101l-0.439,1.29c-1.87,5.49-4.08,10.73-6.551,15.561l-0.319,0.609l-0.66-0.14c-1.32-0.26-2.58-0.79-3.76-1.58
				c-1.261-0.87-2.98-0.92-4.431,0.01c-1.689,1.171-3.59,1.771-5.63,1.771c-1.99,0-3.859-0.6-5.57-1.78
				c-1.409-0.91-3.159-0.859-4.51,0.01c-3.43,2.381-7.83,2.32-11.21-0.01c-1.39-0.899-3.149-0.859-4.38,0
				c-3.189,2.28-7.65,2.44-11.31,0c-1.15-0.859-2.94-0.939-4.43,0.01c-3.14,2.271-7.72,2.431-11.13-0.02
				c-1.35-0.81-3.12-0.92-4.58,0.02c-1.62,1.171-3.47,1.771-5.46,1.771c-2.11,0-4.01-0.6-5.67-1.79c-1.5-0.9-3.23-0.79-4.3-0.08
				l-0.37,0.25l-0.43-0.14c-2.42-0.851-4.78-1.771-7.01-2.74L0,125.77l2.84-9.909h0.68c3.88,0,7.7,0.029,11.46,0.09l3.12-4.36
				l13.22-1.649l5.49-4.57l0.36,0.02c5.15,0.301,10.3,0.74,15.29,1.33V99.61H12.15l0.25-1.101c10.94-48.94,24.51-81.6,40.34-97.06
				l1.529-1.5V106.93z"/>
		</g>
		<g>
		</g>
	</g>
</g>
<g display="none">
	<g display="inline">
		<path d="M82.783,136c-1.984,0-3.858-0.602-5.574-1.788c-1.402-0.902-3.158-0.853-4.51,0.017c-3.43,2.376-7.838,2.32-11.217-0.017
			c-1.391-0.895-3.163-0.853-4.393,0c-3.187,2.292-7.656,2.448-11.319,0.009c-1.152-0.861-2.944-0.949-4.432,0.008
			c-3.144,2.267-7.725,2.431-11.138-0.024c-1.35-0.806-3.122-0.919-4.587,0.024c-1.619,1.166-3.468,1.771-5.46,1.771
			c-2.111,0-4.022-0.605-5.679-1.796c-1.56-0.929-3.325-0.786-4.587,0.024c-0.336,0.289-0.807,0.578-1.307,0.794l-0.713-1.661
			c0.341-0.146,0.661-0.345,0.953-0.588c1.994-1.294,4.379-1.44,6.647-0.079c1.425,1.021,2.937,1.499,4.686,1.499
			c1.627,0,3.081-0.478,4.443-1.459c2.098-1.352,4.558-1.265,6.597-0.04c1.424,1.021,2.877,1.499,4.505,1.499
			c1.75,0,3.261-0.478,4.624-1.459c2.183-1.407,4.833-1.233,6.493,0.011c1.428,0.95,2.993,1.448,4.609,1.448
			c1.75,0,3.261-0.478,4.625-1.459c1.834-1.272,4.4-1.337,6.438-0.024c1.451,1.003,2.969,1.483,4.663,1.483
			c1.633,0,3.121-0.48,4.545-1.468c1.977-1.271,4.49-1.322,6.517-0.016c2.959,2.044,6.412,1.954,9.211,0.016
			c2.088-1.344,4.638-1.254,6.448,0c0.206,0.151,0.411,0.267,0.636,0.356l-0.674,1.677c-0.371-0.149-0.713-0.34-1.017-0.565
			c-1.179-0.815-2.946-0.896-4.391,0.035C86.735,135.398,84.83,136,82.783,136z M82.783,130.577c-1.984,0-3.858-0.602-5.574-1.787
			c-1.402-0.902-3.158-0.853-4.51,0.016c-3.43,2.376-7.838,2.321-11.217-0.016c-1.391-0.896-3.163-0.853-4.393,0
			c-3.187,2.291-7.656,2.447-11.319,0.008c-1.152-0.86-2.944-0.948-4.432,0.008c-3.144,2.266-7.725,2.432-11.138-0.024
			c-1.35-0.805-3.122-0.918-4.587,0.024c-1.619,1.167-3.468,1.771-5.46,1.771c-2.111,0-4.022-0.604-5.679-1.796
			c-1.56-0.929-3.325-0.786-4.587,0.024c-0.336,0.29-0.807,0.579-1.307,0.794l-0.269,0.114l-0.284-0.061
			c-2.501-0.558-4.985-1.201-7.382-1.917L0,127.546v-3.88l6.655-5.019h5.409c2.081-3.06,6.254-4.641,12.418-4.701h0.43
			c3.999-1.099,6.299-2.676,6.857-4.699h-1.28l-4.608-5.422h26.445v-4.247H12.063l0.146-1.031
			c6.008-42.114,13.205-73.266,21.391-92.589l0.18-0.423l20.354-4.699v102.99h6.655l4.607,5.422h-6.815l3.955,4.472l33.074-0.225
			c2.397,0,4.243,1.13,5.494,3.354c0.921,1.839,1.542,4.423,1.916,7.939c0.159,1.893-0.777,3.223-2.634,3.764
			c-2.114,0.328-4.112,0.602-6.106,0.843l-0.234,0.029l-0.215-0.087c-0.371-0.15-0.713-0.341-1.017-0.566
			c-1.179-0.815-2.946-0.895-4.391,0.035C86.735,129.976,84.83,130.577,82.783,130.577z M75.013,126.329
			c1.135,0,2.212,0.323,3.198,0.959c2.959,2.043,6.412,1.953,9.211,0.016c2.088-1.346,4.638-1.255,6.448,0
			c0.146,0.107,0.287,0.193,0.438,0.267c1.896-0.231,3.796-0.491,5.691-0.779c0.921-0.276,1.31-0.815,1.225-1.834
			c-0.346-3.229-0.925-5.68-1.716-7.261c-0.9-1.599-2.178-2.394-3.891-2.394l-33.479,0.225h0.001l-18.876,0.142l-0.001-0.002
			l-18.771,0.087c-5.77,0.057-9.524,1.489-11.151,4.254l-0.262,0.447H7.261l-5.454,4.11v1.63c2.059,0.599,4.178,1.146,6.312,1.625
			c0.247-0.129,0.481-0.285,0.701-0.469c1.994-1.296,4.379-1.441,6.647-0.08c1.425,1.022,2.937,1.499,4.686,1.499
			c1.627,0,3.081-0.477,4.443-1.459c2.098-1.352,4.558-1.265,6.597-0.04c1.424,1.022,2.877,1.499,4.505,1.499
			c1.75,0,3.261-0.477,4.624-1.459c2.183-1.406,4.833-1.235,6.493,0.011c1.428,0.95,2.993,1.448,4.609,1.448
			c1.75,0,3.261-0.477,4.625-1.459c1.834-1.271,4.4-1.338,6.438-0.023c1.451,1.002,2.969,1.482,4.663,1.482
			c1.633,0,3.121-0.48,4.545-1.467C72.707,126.652,73.816,126.329,75.013,126.329z M33.625,109.247
			c-0.327,1.874-1.586,3.437-3.762,4.678l12.181-0.059l-3.122-4.619H33.625z M41.105,109.247l3.114,4.608l15.922-0.119l-3.973-4.489
			H41.105z M56.575,107.44h4.914l-1.536-1.808H29.79l1.536,1.808H56.575z M14.147,97.771h38.18V3.109L35.086,7.087
			C27.101,26.137,20.058,56.643,14.147,97.771z M79.144,122.896H18.798v-1.807h56.328l-2.192-2.476l1.353-1.198L79.144,122.896z
			 M92.159,105.918l-33.324-4.649V13.901l1.758-0.293L92.159,105.918z M60.642,99.695l28.855,4.028L60.642,19.338V99.695z"/>
	</g>
</g>
<g display="none">
	<g id="XMLID_3_" display="inline">
		<g>
			<path fill="#F6CB02" d="M38.92,109.25l3.12,4.62l-12.18,0.05c2.18-1.24,3.44-2.8,3.77-4.67H38.92z"/>
			<path fill="#F6CB02" d="M74.29,117.42l-1.36,1.19l2.2,2.479H18.8v1.811H79.15L74.29,117.42z M62.14,115.53l33.48-0.23
				c1.71,0,2.99,0.8,3.89,2.4c0.79,1.58,1.37,4.03,1.71,7.26c0.09,1.021-0.3,1.55-1.22,1.83c-1.9,0.29-3.79,0.55-5.69,0.78
				c-0.149-0.07-0.29-0.16-0.43-0.271c-1.82-1.25-4.37-1.34-6.46,0c-2.8,1.94-6.25,2.03-9.21-0.01c-0.99-0.64-2.06-0.96-3.2-0.96
				c-1.189,0-2.3,0.32-3.31,0.97c-1.431,0.99-2.92,1.47-4.55,1.47c-1.69,0-3.21-0.479-4.66-1.479c-2.04-1.32-4.61-1.25-6.44,0.02
				c-1.37,0.98-2.88,1.46-4.63,1.46c-1.61,0-3.18-0.5-4.61-1.449c-1.66-1.24-4.31-1.41-6.49-0.011c-1.36,0.98-2.87,1.46-4.62,1.46
				c-1.63,0-3.08-0.479-4.51-1.5c-2.04-1.22-4.5-1.31-6.59,0.04c-1.37,0.98-2.82,1.46-4.45,1.46c-1.75,0-3.26-0.479-4.68-1.5
				c-2.27-1.359-4.66-1.21-6.65,0.08c-0.22,0.19-0.45,0.341-0.7,0.471c-2.14-0.48-4.25-1.03-6.31-1.62v-1.63l5.45-4.11h5.82
				l0.26-0.45c1.63-2.77,5.38-4.2,11.15-4.26l18.77-0.08L62.14,115.53z"/>
			<polygon fill="#F6CB02" points="59.95,105.63 61.49,107.44 56.58,107.44 31.33,107.44 29.79,105.63 			"/>
			<polygon fill="#F6CB02" points="60.64,19.34 89.5,103.72 60.64,99.7 			"/>
			<path fill="#F6CB02" d="M52.33,3.11v94.66H14.15C20.06,56.64,27.1,26.14,35.09,7.09L52.33,3.11z"/>
			<polygon points="74.29,117.42 79.15,122.9 18.8,122.9 18.8,121.09 75.13,121.09 72.93,118.61 			"/>
			<path d="M89.5,103.72L60.64,19.34V99.7L89.5,103.72z M60.59,13.61l31.57,92.31l-33.33-4.65V13.9L60.59,13.61z"/>
			<path d="M35.7,134.19c1.75,0,3.26-0.471,4.62-1.46c2.18-1.4,4.83-1.23,6.49,0.02c1.43,0.95,3,1.44,4.61,1.44
				c1.75,0,3.26-0.471,4.63-1.46c1.83-1.271,4.4-1.33,6.44-0.021c1.45,1,2.97,1.48,4.66,1.48c1.63,0,3.119-0.48,4.55-1.46
				c1.97-1.271,4.49-1.33,6.51-0.021c2.96,2.04,6.41,1.95,9.21,0.021c2.09-1.351,4.64-1.261,6.46,0c0.2,0.149,0.4,0.26,0.63,0.35
				l-0.67,1.68c-0.38-0.149-0.72-0.34-1.02-0.569c-1.181-0.811-2.95-0.891-4.4,0.04c-1.68,1.17-3.59,1.77-5.63,1.77
				c-1.99,0-3.87-0.6-5.58-1.79c-1.4-0.9-3.16-0.85-4.51,0.021c-3.431,2.369-7.84,2.319-11.22-0.021c-1.391-0.89-3.16-0.85-4.391,0
				c-3.189,2.29-7.66,2.45-11.32,0.01c-1.15-0.859-2.94-0.95-4.43,0.011c-3.15,2.27-7.73,2.43-11.14-0.03
				c-1.35-0.8-3.12-0.91-4.59,0.03c-1.62,1.159-3.46,1.77-5.46,1.77c-2.11,0-4.02-0.61-5.68-1.8c-1.56-0.92-3.32-0.78-4.58,0.03
				c-0.34,0.289-0.81,0.579-1.31,0.789l-0.71-1.659c0.34-0.15,0.66-0.341,0.95-0.591c1.99-1.289,4.38-1.439,6.65-0.079
				c1.42,1.029,2.93,1.5,4.68,1.5c1.63,0,3.08-0.471,4.45-1.46c2.09-1.351,4.55-1.261,6.59-0.04
				C32.62,133.72,34.07,134.19,35.7,134.19z"/>
			<path d="M44.22,113.86l15.919-0.12l-3.97-4.49H41.1L44.22,113.86z M38.92,109.25h-5.29c-0.33,1.87-1.59,3.43-3.77,4.67
				l12.18-0.05L38.92,109.25z M31.33,107.44h25.25h4.91l-1.54-1.811H29.79L31.33,107.44z M52.33,3.11L35.09,7.09
				C27.1,26.14,20.06,56.64,14.15,97.77h38.18V3.11z M41.34,128.81c-3.15,2.261-7.73,2.431-11.14-0.029
				c-1.35-0.8-3.12-0.92-4.59,0.029c-1.62,1.16-3.46,1.771-5.46,1.771c-2.11,0-4.02-0.61-5.68-1.8c-1.56-0.931-3.32-0.78-4.58,0.029
				c-0.34,0.29-0.81,0.57-1.31,0.79l-0.27,0.11l-0.28-0.06c-2.5-0.551-4.99-1.2-7.38-1.91L0,127.55v-3.88l6.66-5.02h5.4
				c2.09-3.061,6.26-4.641,12.42-4.7h0.43c4-1.101,6.3-2.681,6.86-4.7h-1.28l-4.61-5.42h26.45v-4.25H12.06l0.15-1.03
				c6.01-42.12,13.2-73.27,21.39-92.59l0.18-0.43l20.35-4.7v103h6.66l4.61,5.42h-6.82l3.96,4.47l33.07-0.229
				c2.399,0,4.239,1.13,5.5,3.359c0.92,1.841,1.54,4.42,1.92,7.94c0.149,1.89-0.79,3.22-2.641,3.76
				c-2.12,0.33-4.109,0.601-6.109,0.84l-0.23,0.03l-0.21-0.08c-0.38-0.149-0.72-0.34-1.02-0.57c-1.181-0.81-2.95-0.89-4.4,0.04
				c-1.68,1.171-3.59,1.771-5.63,1.771c-1.99,0-3.87-0.6-5.58-1.79c-1.4-0.9-3.16-0.85-4.51,0.02c-3.431,2.37-7.84,2.32-11.22-0.02
				c-1.391-0.9-3.16-0.85-4.391,0c-3.189,2.29-7.66,2.45-11.32,0.01C44.62,127.94,42.83,127.85,41.34,128.81z M35.7,128.77
				c1.75,0,3.26-0.479,4.62-1.46c2.18-1.399,4.83-1.229,6.49,0.011c1.43,0.949,3,1.449,4.61,1.449c1.75,0,3.26-0.479,4.63-1.46
				c1.83-1.27,4.4-1.34,6.44-0.02c1.45,1,2.97,1.479,4.66,1.479c1.63,0,3.119-0.479,4.55-1.47c1.01-0.649,2.12-0.97,3.31-0.97
				c1.141,0,2.21,0.32,3.2,0.96c2.96,2.04,6.41,1.95,9.21,0.01c2.09-1.34,4.64-1.25,6.46,0c0.14,0.11,0.28,0.2,0.43,0.271
				c1.9-0.23,3.79-0.49,5.69-0.78c0.92-0.28,1.31-0.81,1.22-1.83c-0.34-3.229-0.92-5.68-1.71-7.26c-0.899-1.601-2.18-2.4-3.89-2.4
				l-33.48,0.23l-18.88,0.14l-18.77,0.08c-5.77,0.06-9.52,1.49-11.15,4.26l-0.26,0.45H7.26l-5.45,4.11v1.63
				c2.06,0.59,4.17,1.14,6.31,1.62c0.25-0.13,0.48-0.28,0.7-0.471c1.99-1.29,4.38-1.439,6.65-0.08c1.42,1.021,2.93,1.5,4.68,1.5
				c1.63,0,3.08-0.479,4.45-1.46c2.09-1.35,4.55-1.26,6.59-0.04C32.62,128.29,34.07,128.77,35.7,128.77z"/>
		</g>
		<g>
		</g>
	</g>
</g>
<g display="none">
	<g display="inline">
		<path d="M65.926,136c-1.943,0-3.754-0.571-5.381-1.698c-1.324-0.852-3.006-0.81-4.173,0c-3.032,2.178-7.281,2.322-10.751,0.009
			c-1.088-0.816-2.795-0.902-4.21,0.007c-2.981,2.152-7.335,2.31-10.581-0.023c-1.283-0.765-2.964-0.87-4.355,0.023
			c-1.536,1.108-3.293,1.683-5.186,1.683c-2.005,0-3.821-0.574-5.394-1.706c-1.493-0.889-3.151-0.751-4.356,0.023
			C10.001,135.426,8.244,136,6.353,136c-1.118,0-2.162-0.16-3.105-0.473l0.543-1.63c0.767,0.255,1.63,0.386,2.562,0.386
			c1.546,0,2.926-0.452,4.22-1.385c1.8-1.161,4.11-1.334,6.265-0.038c1.353,0.971,2.79,1.423,4.451,1.423
			c1.546,0,2.928-0.452,4.22-1.385c1.99-1.284,4.327-1.202,6.265-0.038c1.353,0.971,2.735,1.423,4.279,1.423
			c1.663,0,3.1-0.452,4.393-1.385c2.072-1.336,4.592-1.174,6.168,0.012c1.355,0.9,2.84,1.373,4.378,1.373
			c1.66,0,3.096-0.452,4.391-1.385c1.745-1.209,4.183-1.269,6.116-0.023c1.378,0.952,2.818,1.408,4.428,1.408
			c1.552,0,2.964-0.456,4.32-1.393c1.869-1.209,4.264-1.256,6.187-0.016c0.506,0.388,1.006,0.661,1.546,0.858l-0.587,1.613
			c-0.708-0.259-1.363-0.617-1.948-1.071c-1.259-0.802-2.964-0.783-4.245,0.042C69.594,135.429,67.812,136,65.926,136z
			 M65.926,130.85c-1.943,0-3.754-0.571-5.381-1.698c-1.324-0.85-3.006-0.812-4.173,0c-3.032,2.178-7.281,2.322-10.751,0.009
			c-1.088-0.816-2.795-0.902-4.21,0.007c-2.981,2.152-7.335,2.31-10.581-0.023c-1.283-0.765-2.964-0.87-4.355,0.023
			c-1.536,1.107-3.293,1.683-5.186,1.683c-2.005,0-3.821-0.575-5.394-1.706c-1.493-0.889-3.151-0.752-4.356,0.023
			c-1.537,1.107-3.294,1.683-5.186,1.683c-1.118,0-2.162-0.16-3.105-0.473l-1.081-0.362l0.644-0.938
			c2.51-3.66,6.395-6.222,11.568-7.635L0,113.813v-6.485h17.167v5.15h3.875l10.301-6.438h-5.467l-10.152-5.6l0.414-1.609H28.9
			l-6.344-3.905l0.449-1.589h2.864l-0.919-2.919h-6.995l-9.135-5.62l0.45-1.59h13.403l-1.546-4.637h5.786l9.271,14.766h18.122
			l9.615,5.494h7.726l9.813,5.606l-0.426,1.603h-4.494l4.205,2.404h19.837l2.404,2.964l-0.979,0.472
			c-9.741,4.672-17.7,10.746-23.657,18.052l-0.386,0.473l-0.573-0.208c-0.708-0.259-1.363-0.617-1.948-1.071
			c-1.259-0.802-2.964-0.783-4.245,0.042C69.594,130.278,67.812,130.85,65.926,130.85z M58.458,126.814
			c1.08,0,2.103,0.307,3.04,0.91c1.378,0.952,2.818,1.408,4.428,1.408c1.552,0,2.964-0.456,4.32-1.393
			c1.869-1.209,4.264-1.256,6.187-0.016c0.332,0.252,0.659,0.458,0.997,0.624c5.867-7.035,13.55-12.934,22.861-17.54l-0.526-0.647
			H72.171c-0.401,0.479-0.823,0.942-1.258,1.378c-0.896,0.897-1.955,1.744-3.146,2.519l-0.216,0.138
			c-0.945,0.597-2.002,1.175-3.146,1.72c-8.034,3.757-20.715,5.777-37.698,6.006c-0.379,0-0.773,0.026-1.192,0.08l-6.264,0.178
			c-0.739,0.104-1.516,0.241-2.235,0.407l-0.017-0.068l-0.01,0.073c-5.328,1.047-9.358,3.211-12.003,6.441
			c0.435,0.067,0.89,0.101,1.365,0.101c1.546,0,2.926-0.452,4.22-1.385c1.8-1.162,4.11-1.334,6.265-0.038
			c1.353,0.971,2.79,1.423,4.451,1.423c1.546,0,2.928-0.452,4.22-1.385c1.99-1.284,4.327-1.202,6.265-0.038
			c1.353,0.971,2.735,1.423,4.279,1.423c1.663,0,3.1-0.452,4.393-1.385c2.072-1.336,4.592-1.174,6.168,0.012
			c1.355,0.9,2.84,1.373,4.378,1.373c1.66,0,3.096-0.452,4.391-1.385C56.28,127.126,57.312,126.814,58.458,126.814z M4.216,114.195
			l12.729,6.648c0.682-0.147,1.412-0.272,2.171-0.375l6.269-0.178c0.414-0.058,0.878-0.087,1.313-0.087
			c16.726-0.226,29.17-2.19,36.977-5.842c0.115-0.055,0.231-0.11,0.346-0.167H4.216z M24.281,112.478h42.763
			c1.002-0.67,1.896-1.391,2.653-2.15c0.486-0.488,0.958-1.015,1.397-1.562l0.256-0.321h5.936l-4.205-2.404H34.582L24.281,112.478z
			 M12.018,112.478h3.433v-3.434h-3.433V112.478z M6.867,112.478h3.434v-3.434H6.867V112.478z M1.717,112.478H5.15v-3.434H1.717
			V112.478z M73.309,104.323h4.494l-6.611-3.775H19.471l6.847,3.775H73.309z M32.176,98.831h28.286l-6.611-3.777H26.038
			L32.176,98.831z M27.669,93.337h6.488l-8.193-13.049h-2.456l1.545,4.637h-12.75l6.138,3.776h7.77L27.669,93.337z"/>
	</g>
</g>
<g display="none">
	<g id="XMLID_4_" display="inline">
		<g>
			<path fill="#F6CB02" d="M99.76,110.16l0.53,0.649c-9.31,4.61-16.99,10.5-22.86,17.54c-0.34-0.17-0.67-0.369-1-0.63
				c-1.92-1.239-4.31-1.189-6.18,0.021c-1.36,0.939-2.77,1.39-4.32,1.39c-1.609,0-3.05-0.45-4.43-1.41
				c-0.94-0.6-1.96-0.91-3.04-0.91c-1.15,0-2.18,0.32-3.08,0.94c-1.29,0.93-2.729,1.38-4.39,1.38c-1.54,0-3.02-0.47-4.38-1.37
				c-1.57-1.189-4.09-1.35-6.17-0.01c-1.29,0.93-2.72,1.38-4.39,1.38c-1.54,0-2.92-0.45-4.28-1.42c-1.93-1.16-4.27-1.25-6.26,0.04
				c-1.29,0.93-2.68,1.38-4.22,1.38c-1.66,0-3.1-0.45-4.45-1.42c-2.16-1.3-4.47-1.12-6.27,0.04c-1.29,0.93-2.67,1.38-4.22,1.38
				c-0.47,0-0.93-0.03-1.36-0.1c2.64-3.23,6.67-5.391,12-6.44l0.01-0.07l0.02,0.07c0.72-0.17,1.49-0.31,2.23-0.41l6.27-0.18
				c0.42-0.05,0.81-0.08,1.19-0.08c16.98-0.229,29.66-2.25,37.7-6c1.14-0.55,2.2-1.13,3.14-1.72l0.22-0.141
				c1.19-0.779,2.25-1.619,3.141-2.52c0.439-0.44,0.859-0.9,1.26-1.38H99.76z"/>
			<path fill="#F6CB02" d="M64.02,114.2c-0.109,0.05-0.229,0.109-0.35,0.16c-7.8,3.649-20.25,5.62-36.97,5.84
				c-0.44,0-0.9,0.03-1.32,0.09l-6.26,0.18c-0.76,0.101-1.49,0.23-2.18,0.37L4.22,114.2H64.02z"/>
			<polygon fill="#F6CB02" points="77.8,104.32 73.31,104.32 26.32,104.32 19.47,100.55 71.19,100.55 			"/>
			<polygon fill="#F6CB02" points="60.46,98.83 32.18,98.83 26.04,95.05 53.85,95.05 			"/>
			<polygon fill="#F6CB02" points="25.96,80.29 34.16,93.34 27.67,93.34 26.21,88.7 18.44,88.7 12.3,84.92 25.05,84.92 23.51,80.29 
							"/>
			<path d="M10.57,132.9c1.8-1.16,4.11-1.341,6.27-0.04c1.35,0.97,2.79,1.42,4.45,1.42c1.54,0,2.93-0.45,4.22-1.38
				c1.99-1.29,4.33-1.2,6.26-0.04c1.36,0.97,2.74,1.42,4.28,1.42c1.67,0,3.1-0.45,4.39-1.38c2.08-1.341,4.6-1.181,6.17,0.01
				c1.36,0.899,2.84,1.37,4.38,1.37c1.66,0,3.1-0.45,4.39-1.38c1.75-1.21,4.18-1.271,6.12-0.021c1.38,0.95,2.82,1.4,4.43,1.4
				c1.551,0,2.96-0.45,4.32-1.391c1.87-1.21,4.26-1.26,6.18-0.01c0.511,0.38,1.011,0.66,1.551,0.851l-0.591,1.619
				c-0.71-0.26-1.359-0.619-1.949-1.069c-1.261-0.811-2.96-0.79-4.24,0.04C69.59,135.43,67.81,136,65.93,136
				c-1.949,0-3.76-0.57-5.39-1.7c-1.32-0.85-3-0.81-4.17,0c-3.03,2.181-7.28,2.32-10.75,0.01c-1.09-0.819-2.79-0.899-4.21,0.011
				c-2.98,2.149-7.33,2.31-10.58-0.03c-1.28-0.76-2.96-0.87-4.36,0.03c-1.53,1.109-3.29,1.68-5.18,1.68c-2.01,0-3.82-0.57-5.4-1.71
				c-1.49-0.88-3.15-0.75-4.35,0.03C10,135.43,8.24,136,6.35,136c-1.12,0-2.16-0.16-3.1-0.47l0.54-1.63
				c0.77,0.25,1.63,0.38,2.56,0.38C7.9,134.28,9.28,133.83,10.57,132.9z"/>
			<path d="M24.28,112.48h42.76c1.01-0.671,1.9-1.391,2.66-2.15c0.479-0.49,0.96-1.021,1.39-1.561l0.26-0.329h5.94l-4.21-2.4h-38.5
				L24.28,112.48z M53.85,95.05H26.04l6.14,3.78h28.28L53.85,95.05z M15.45,112.48v-3.44h-3.43v3.44H15.45z M18.44,88.7h7.77
				l1.46,4.64h6.49l-8.2-13.05h-2.45l1.54,4.63H12.3L18.44,88.7z M71.19,100.55H19.47l6.85,3.771h46.99h4.49L71.19,100.55z
				 M5.15,112.48v-3.44H1.72v3.44H5.15z M64.02,114.2H4.22l12.72,6.64c0.69-0.14,1.42-0.27,2.18-0.37l6.26-0.18
				c0.42-0.06,0.88-0.09,1.32-0.09c16.72-0.22,29.17-2.19,36.97-5.84C63.79,114.31,63.91,114.25,64.02,114.2z M10.3,112.48v-3.44
				H6.87v3.44H10.3z M15.89,129.14c-1.49-0.89-3.15-0.75-4.35,0.03c-1.54,1.1-3.3,1.68-5.19,1.68c-1.12,0-2.16-0.159-3.1-0.47
				l-1.08-0.37l0.64-0.93c2.51-3.66,6.4-6.23,11.57-7.64L0,113.81v-6.479h17.17v5.15h3.87l10.3-6.44h-5.46l-10.16-5.6l0.42-1.61
				H28.9l-6.34-3.9L23,93.34h2.87l-0.92-2.92h-6.99L8.82,84.8l0.45-1.59h13.4l-1.54-4.64h5.78l9.27,14.77H54.31l9.61,5.49h7.73
				l9.81,5.61l-0.42,1.6h-4.5l4.21,2.4h19.83l2.41,2.97l-0.98,0.47c-9.74,4.67-17.7,10.75-23.66,18.05l-0.39,0.471l-0.57-0.2
				c-0.71-0.26-1.359-0.62-1.949-1.08c-1.261-0.8-2.96-0.78-4.24,0.05c-1.61,1.11-3.391,1.68-5.271,1.68
				c-1.949,0-3.76-0.569-5.39-1.699c-1.32-0.851-3-0.811-4.17,0c-3.03,2.18-7.28,2.319-10.75,0.01c-1.09-0.82-2.79-0.9-4.21,0.01
				c-2.98,2.15-7.33,2.311-10.58-0.03c-1.28-0.76-2.96-0.87-4.36,0.03c-1.53,1.1-3.29,1.68-5.18,1.68
				C19.28,130.85,17.47,130.27,15.89,129.14z M10.57,127.75c1.8-1.16,4.11-1.34,6.27-0.04c1.35,0.97,2.79,1.42,4.45,1.42
				c1.54,0,2.93-0.45,4.22-1.38c1.99-1.29,4.33-1.2,6.26-0.04c1.36,0.97,2.74,1.42,4.28,1.42c1.67,0,3.1-0.45,4.39-1.38
				c2.08-1.34,4.6-1.18,6.17,0.01c1.36,0.9,2.84,1.37,4.38,1.37c1.66,0,3.1-0.45,4.39-1.38c0.9-0.62,1.93-0.94,3.08-0.94
				c1.08,0,2.1,0.311,3.04,0.91c1.38,0.96,2.82,1.41,4.43,1.41c1.551,0,2.96-0.45,4.32-1.39c1.87-1.21,4.26-1.26,6.18-0.021
				c0.33,0.261,0.66,0.46,1,0.63c5.87-7.04,13.551-12.93,22.86-17.54l-0.53-0.649H72.17c-0.4,0.479-0.82,0.939-1.26,1.38
				c-0.891,0.9-1.95,1.74-3.141,2.52l-0.22,0.141c-0.939,0.59-2,1.17-3.14,1.72c-8.04,3.75-20.72,5.771-37.7,6
				c-0.38,0-0.77,0.03-1.19,0.08l-6.27,0.18c-0.74,0.101-1.51,0.24-2.23,0.41L17,122.52l-0.01,0.07c-5.33,1.05-9.36,3.21-12,6.44
				c0.43,0.069,0.89,0.1,1.36,0.1C7.9,129.13,9.28,128.68,10.57,127.75z"/>
		</g>
		<g>
		</g>
	</g>
</g>
</svg>
