<?xml version="1.0" encoding="utf-8"?>
<!-- Generator: Adobe Illustrator 19.2.1, SVG Export Plug-In . SVG Version: 6.00 Build 0)  -->
<svg version="1.1" id="Layer_1" xmlns="http://www.w3.org/2000/svg" xmlns:xlink="http://www.w3.org/1999/xlink" x="0px" y="0px"
	 viewBox="0 0 103 136" style="enable-background:new 0 0 103 136;" xml:space="preserve">
<style type="text/css">
	.st0{display:none;}
	.st1{display:inline;}
	.st2{fill:#F6CB02;}
	.st3{fill:#FFFFFF;}
</style>
<g class="st0">
	<g class="st1">
		<path d="M80.5,136c-1.9,0-3.8-0.6-5.4-1.7c-1.4-0.9-3.1-0.8-4.4,0c-3.4,2.3-7.7,2.3-11,0c-1.4-0.9-3.1-0.8-4.3,0
			c-3.1,2.2-7.5,2.4-11.1,0c-1.1-0.8-2.9-0.9-4.3,0c-3.1,2.2-7.5,2.4-10.9,0c-1.3-0.8-3-0.9-4.5,0c-1.6,1.1-3.4,1.7-5.3,1.7
			c-2.1,0-3.9-0.6-5.5-1.8c-1.5-0.9-3.2-0.8-4.5,0C7.7,135.4,5.9,136,4,136c-0.9,0-1.8-0.1-2.6-0.3l0.4-1.7c0.7,0.2,1.4,0.2,2.2,0.2
			c1.6,0,3-0.5,4.3-1.4c1.9-1.2,4.2-1.4,6.4,0c1.4,1,2.9,1.5,4.6,1.5c1.6,0,3-0.5,4.3-1.4c2-1.3,4.5-1.2,6.4,0
			c1.4,1,2.8,1.5,4.4,1.5c1.7,0,3.2-0.5,4.5-1.4c2.1-1.4,4.7-1.2,6.3,0c1.4,0.9,2.9,1.4,4.5,1.4c1.7,0,3.2-0.5,4.5-1.4
			c1.8-1.2,4.3-1.3,6.3,0c1.4,1,2.9,1.4,4.6,1.4c1.6,0,3-0.5,4.4-1.4c1.9-1.2,4.4-1.3,6.4,0c2.9,2,6.3,1.9,9,0
			c1.9-1.2,4.1-1.2,5.8-0.3L90,134c-1.1-0.6-2.7-0.6-4,0.2C84.4,135.4,82.5,136,80.5,136z M80.5,130.7c-1.9,0-3.8-0.6-5.4-1.7
			c-1.4-0.9-3.1-0.8-4.4,0c-3.4,2.3-7.7,2.3-11,0c-1.4-0.9-3.1-0.8-4.3,0c-3.1,2.2-7.5,2.4-11.1,0c-1.1-0.8-2.9-0.9-4.3,0
			c-3.1,2.2-7.5,2.4-10.9,0c-1.3-0.8-3-0.9-4.5,0c-1.6,1.1-3.4,1.7-5.3,1.7c-2.1,0-3.9-0.6-5.5-1.8c-1.5-0.9-3.2-0.8-4.5,0
			c-1.6,1.1-3.4,1.7-5.3,1.7c-0.9,0-1.8-0.1-2.6-0.3L0,130l5.2-5.9c1.7-2,5.6-3.6,11.9-4.6c0.6-0.1,1.3-0.2,2-0.3l2.3-2.9l0.4-0.1
			c1.3-0.2,2.7-0.4,4.2-0.6l7.4-1c8.8-1.4,12-3,13.1-4.2H28.6l-5-5.1h4.5c-2.4-2.3-5.2-5.5-8.1-9.4l-1.1-1.4h8.3l0.2,0.2
			c1.6,1.3,3.9,3,6.8,5c2.8,1.9,6.2,3.8,10.1,5.6h7.4c9.7,0.3,20.1,2.1,30.9,5.3c3.1,1,6.3,2.1,9.5,3.2c3.5,0.4,6.7,1.1,9.4,1.9
			l1.3,0.4l-0.9,1c-4.3,4.9-8,8.8-11,11.5l-0.5,0.4l-0.5-0.3c-1.1-0.6-2.7-0.6-4,0.2C84.4,130.1,82.5,130.7,80.5,130.7z M72.9,126.6
			c1.1,0,2.2,0.3,3.1,0.9c2.9,2,6.3,1.9,9,0c1.6-1.1,3.6-1.2,5.2-0.6c2.7-2.4,5.9-5.7,9.5-9.9c-2.4-0.6-5-1.1-7.9-1.5l0,0l0,0
			c-10.4-1.3-24.4-0.9-41.6,1.2c-8.7,1.1-15.9,2-21.6,2.8c-3.5,0.5-6.5,0.9-8.9,1.3l-2.2,0.3l0,0c-0.1,0-0.1,0-0.2,0
			c-7.2,1.2-9.9,2.8-10.8,4l-3.2,3.7c1.8,0.1,3.5-0.3,5-1.4c1.9-1.2,4.2-1.4,6.4,0c1.4,1,2.9,1.5,4.6,1.5c1.6,0,3-0.5,4.3-1.4
			c2-1.3,4.5-1.2,6.4,0c1.4,1,2.8,1.5,4.4,1.5c1.7,0,3.2-0.5,4.5-1.4c2.1-1.4,4.7-1.2,6.3,0c1.4,0.9,2.9,1.4,4.5,1.4
			c1.7,0,3.2-0.5,4.5-1.4c1.8-1.2,4.3-1.3,6.3,0c1.4,1,2.9,1.4,4.6,1.4c1.6,0,3-0.5,4.4-1.4C70.7,126.9,71.8,126.6,72.9,126.6z
			 M22.3,117.9l-0.7,0.9c2-0.3,4.2-0.6,6.8-0.9c5.7-0.8,13-1.7,21.6-2.8c13.8-1.7,25.6-2.3,35.1-1.8c-1-0.3-2-0.7-3-1
			c-10.7-3.2-20.9-5-30.5-5.3H27.8l1.5,1.6h19.3l-0.1,1c-0.4,3.1-5.1,5.2-15,6.8l-7.4,1C24.7,117.6,23.5,117.8,22.3,117.9z
			 M30.7,105.3h9.5c-2.6-1.3-5-2.7-7-4.1c-2.8-1.9-5.1-3.5-6.7-4.9h-4.1C25.5,100.1,28.3,103.2,30.7,105.3z"/>
	</g>
</g>
<g class="st0">
	<g class="st1">
		<path class="st2" d="M80.5,136c-1.9,0-3.8-0.6-5.4-1.7c-1.4-0.9-3.1-0.8-4.4,0c-3.4,2.3-7.7,2.3-11,0c-1.4-0.9-3.1-0.8-4.3,0
			c-3.1,2.2-7.5,2.4-11.1,0c-1.1-0.8-2.9-0.9-4.3,0c-3.1,2.2-7.5,2.4-10.9,0c-1.3-0.8-3-0.9-4.5,0c-1.6,1.1-3.4,1.7-5.3,1.7
			c-2.1,0-3.9-0.6-5.5-1.8c-1.5-0.9-3.2-0.8-4.5,0C7.7,135.4,5.9,136,4,136c-0.9,0-1.8-0.1-2.6-0.3l0.4-1.7c0.7,0.2,1.4,0.2,2.2,0.2
			c1.6,0,3-0.5,4.3-1.4c1.9-1.2,4.2-1.4,6.4,0c1.4,1,2.9,1.5,4.6,1.5c1.6,0,3-0.5,4.3-1.4c2-1.3,4.5-1.2,6.4,0
			c1.4,1,2.8,1.5,4.4,1.5c1.7,0,3.2-0.5,4.5-1.4c2.1-1.4,4.7-1.2,6.3,0c1.4,0.9,2.9,1.4,4.5,1.4c1.7,0,3.2-0.5,4.5-1.4
			c1.8-1.2,4.3-1.3,6.3,0c1.4,1,2.9,1.4,4.6,1.4c1.6,0,3.1-0.5,4.4-1.4c1.9-1.2,4.4-1.3,6.4,0c2.9,2,6.3,1.9,9,0
			c1.9-1.2,4.1-1.2,5.8-0.3L90,134c-1.1-0.6-2.7-0.6-4,0.2C84.4,135.4,82.5,136,80.5,136z M80.5,130.7c-1.9,0-3.8-0.6-5.4-1.8
			c-1.4-0.9-3.1-0.8-4.4,0c-3.4,2.3-7.7,2.3-11,0c-1.4-0.9-3.1-0.8-4.3,0c-3.1,2.2-7.5,2.4-11.1,0c-1.1-0.8-2.9-0.9-4.3,0
			c-3.1,2.2-7.5,2.4-10.9,0c-1.3-0.8-3-0.9-4.5,0c-1.6,1.1-3.4,1.7-5.3,1.7c-2.1,0-3.9-0.6-5.5-1.8c-1.5-0.9-3.2-0.8-4.5,0
			c-1.6,1.1-3.4,1.7-5.3,1.7c-0.9,0-1.8-0.1-2.6-0.3L0,130l5.2-5.9c1.7-2,5.6-3.6,11.9-4.6c0.6-0.1,1.3-0.2,2-0.3l2.3-2.9l0.4-0.1
			c1.3-0.2,2.7-0.4,4.2-0.6l7.4-1c8.8-1.4,12-3,13.1-4.2H28.6l-5-5.1h4.5c-2.4-2.3-5.2-5.5-8.1-9.4l-1.1-1.4h8.3l0.2,0.2
			c1.6,1.3,3.9,3,6.8,5c2.8,1.9,6.2,3.8,10.1,5.6h7.4c9.7,0.3,20.1,2.1,30.9,5.3c3.1,1,6.3,2.1,9.5,3.2c3.5,0.4,6.7,1.1,9.4,1.9
			l1.3,0.4l-0.9,1c-4.3,5-8,8.8-11,11.5l-0.5,0.4l-0.5-0.3c-1.1-0.6-2.7-0.6-4,0.2C84.4,130.1,82.5,130.7,80.5,130.7z M72.9,126.5
			c1.1,0,2.2,0.3,3.1,0.9c2.9,2,6.3,1.9,9,0c1.6-1.1,3.6-1.2,5.2-0.6c2.7-2.4,5.9-5.7,9.5-9.9c-2.4-0.6-5-1.1-7.9-1.5l0,0l0,0
			c-10.4-1.3-24.4-0.9-41.6,1.2c-8.7,1.1-15.9,2-21.6,2.8c-3.5,0.5-6.5,0.9-8.9,1.3l-2.2,0.3l0,0c-0.1,0-0.1,0-0.2,0
			c-7.2,1.2-9.9,2.8-10.8,4l-3.2,3.7c1.8,0.1,3.5-0.3,5-1.4c1.9-1.2,4.2-1.4,6.4,0c1.4,1,2.9,1.5,4.6,1.5c1.6,0,3-0.5,4.3-1.4
			c2-1.3,4.5-1.2,6.4,0c1.4,1,2.8,1.5,4.4,1.5c1.7,0,3.2-0.5,4.5-1.4c2.1-1.4,4.7-1.2,6.3,0c1.4,0.9,2.9,1.4,4.5,1.4
			c1.7,0,3.2-0.5,4.5-1.4c1.8-1.2,4.3-1.3,6.3,0c1.4,1,2.9,1.4,4.6,1.4c1.6,0,3.1-0.5,4.4-1.4C70.7,126.9,71.8,126.5,72.9,126.5z
			 M22.3,117.9l-0.7,0.9c2-0.3,4.2-0.6,6.8-0.9c5.7-0.8,13-1.7,21.6-2.8c13.8-1.7,25.6-2.3,35.2-1.8c-1-0.3-2-0.7-3-1
			c-10.7-3.2-20.9-5-30.4-5.3H27.8l1.5,1.6h19.3l-0.1,1c-0.4,3.1-5.1,5.2-15,6.8l-7.4,1C24.7,117.6,23.5,117.8,22.3,117.9z
			 M30.7,105.3h9.5c-2.6-1.3-5-2.7-7-4.1c-2.8-1.9-5.1-3.5-6.7-4.9h-4.1C25.5,100.1,28.3,103.2,30.7,105.3z"/>
	</g>
</g>
<g>
	<g>
		<path class="st3" d="M81.1,136c-2,0-3.9-0.6-5.6-1.8c-1.4-0.9-3.2-0.9-4.5,0c-3.4,2.4-7.8,2.3-11.2,0c-1.4-0.9-3.2-0.9-4.4,0
			c-3.2,2.3-7.6,2.4-11.3,0c-1.1-0.9-2.9-0.9-4.4,0c-3.1,2.3-7.7,2.4-11.1,0c-1.4-0.8-3.1-0.9-4.6,0c-1.6,1.2-3.5,1.8-5.5,1.8
			c-2.1,0-4-0.6-5.7-1.8c-1.5-0.9-3.2-0.8-4.3-0.1l-1-1.5c1.6-1.1,4.1-1.3,6.3,0.1c1.4,1,2.9,1.5,4.7,1.5c1.6,0,3.1-0.5,4.4-1.5
			c2.1-1.4,4.6-1.3,6.6,0c1.4,1,2.9,1.5,4.5,1.5c1.7,0,3.3-0.5,4.6-1.5c2.2-1.4,4.8-1.2,6.5,0c1.4,0.9,3,1.4,4.6,1.4
			c1.7,0,3.3-0.5,4.6-1.5c1.8-1.3,4.4-1.3,6.4,0c1.4,1,3,1.5,4.7,1.5c1.6,0,3.1-0.5,4.5-1.5c2-1.3,4.5-1.3,6.5,0c3,2,6.4,2,9.2,0
			c2.1-1.3,4.6-1.3,6.4,0c1,0.6,2,1.1,3.1,1.3l-0.4,1.8c-1.3-0.3-2.6-0.8-3.8-1.6c-1.3-0.9-3-0.9-4.4,0C85,135.4,83.1,136,81.1,136z
			 M81.1,130.6c-2,0-3.9-0.6-5.6-1.8c-1.4-0.9-3.2-0.9-4.5,0c-3.4,2.4-7.8,2.3-11.2,0c-1.4-0.9-3.2-0.9-4.4,0
			c-3.2,2.3-7.6,2.4-11.3,0c-1.1-0.9-2.9-0.9-4.4,0c-3.1,2.3-7.7,2.4-11.1,0c-1.4-0.8-3.1-0.9-4.6,0c-1.6,1.2-3.5,1.8-5.5,1.8
			c-2.1,0-4-0.6-5.7-1.8c-1.5-0.9-3.2-0.8-4.3-0.1L8.2,129l-0.4-0.1c-2.4-0.8-4.8-1.8-7-2.7L0,125.8l2.8-9.9h0.7
			c3.9,0,7.7,0,11.5,0.1l3.1-4.4l13.2-1.6l5.5-4.6l0.4,0c5.2,0.3,10.3,0.7,15.3,1.3v-7.1H12.1l0.2-1.1C23.3,49.6,36.9,16.9,52.7,1.4
			L54.3,0v107c0.5,0.1,1,0.1,1.6,0.2c0.3,0,0.6,0,1,0.1c0.1,0,0.4,0,0.7,0.1c10.8,1.5,21.6,3.7,31.8,6.7c4.2-0.3,8.3-0.6,12.3-0.9
			l1.4-0.1l-0.4,1.3c-1.9,5.5-4.1,10.7-6.6,15.6l-0.3,0.6l-0.7-0.1c-1.3-0.3-2.6-0.8-3.8-1.6c-1.3-0.9-3-0.9-4.4,0
			C85,130,83.1,130.6,81.1,130.6z M73.3,126.3c1.1,0,2.2,0.3,3.2,1c3,2,6.4,2,9.2,0c2.1-1.3,4.6-1.3,6.4,0c0.8,0.5,1.6,0.9,2.4,1.1
			c2.1-4.2,4-8.7,5.7-13.4c-3.6,0.3-7.3,0.5-11.1,0.8l-0.2,0l0,0c-4.8,0.2-9.8,0.5-14.8,0.7l-0.1,0l-3.9,0.2
			c-12.1,0.5-25.3,0.8-39.1,0.9l0,0h-1.2c-4.5,0-9,0-13.5,0.1h-0.9c-3.7-0.1-7.4-0.1-11.2-0.1l-2,7.1c1.9,0.8,3.8,1.5,5.8,2.2
			c1.6-0.9,3.9-0.9,5.9,0.3c1.4,1,2.9,1.5,4.7,1.5c1.6,0,3.1-0.5,4.4-1.5c2.1-1.4,4.6-1.3,6.6,0c1.4,1,2.9,1.5,4.5,1.5
			c1.7,0,3.3-0.5,4.6-1.5c2.2-1.4,4.8-1.2,6.5,0c1.4,0.9,3,1.4,4.6,1.4c1.7,0,3.3-0.5,4.6-1.5c1.8-1.3,4.4-1.3,6.4,0
			c1.4,1,3,1.5,4.7,1.5c1.6,0,3.1-0.5,4.5-1.5C71,126.7,72.1,126.3,73.3,126.3z M19.1,113.3l-1.9,2.7c4.3-0.1,8.5-0.1,12.7-0.1h0.6
			l7.2-5.9l0.4,0c5.9,0.4,11.9,0.9,17.8,1.6c0.2,0,0.6,0,1,0.1c0.1,0,0.4,0,0.7,0.1c5.6,0.7,11.3,1.7,16.8,2.9
			c3.1-0.1,6.2-0.3,9.3-0.4c-8.5-2.3-17.4-4-26.5-5.2c-0.3-0.1-0.3-0.1-0.4-0.1c-0.4-0.1-0.7-0.1-0.9-0.1c-0.9-0.1-1.7-0.2-2.4-0.3
			l-0.8-0.1c-4.9-0.6-10-1-15-1.3l-5.3,4.5L19.1,113.3z M38.3,111.8l-4.9,4c11.6-0.1,22.7-0.4,33.2-0.7c-3.1-0.6-6.3-1.1-9.5-1.5
			c-0.3-0.1-0.3-0.1-0.4-0.1c-0.4-0.1-0.7-0.1-0.9-0.1C49.9,112.7,44.1,112.2,38.3,111.8z M14.4,97.8h38.1V4.3
			C37.7,20,24.9,51.4,14.4,97.8z M92.3,105.9L59,101.3V14l1.8-0.3L92.3,105.9z M60.8,99.7l28.8,4L60.8,19.4V99.7z"/>
	</g>
</g>
<g class="st0">
	<g class="st1">
		<path class="st2" d="M81.1,136c-2,0-3.9-0.6-5.6-1.8c-1.4-0.9-3.2-0.9-4.5,0c-3.4,2.4-7.8,2.3-11.2,0c-1.4-0.9-3.2-0.9-4.4,0
			c-3.2,2.3-7.6,2.4-11.3,0c-1.1-0.9-2.9-0.9-4.4,0c-3.1,2.3-7.7,2.4-11.1,0c-1.4-0.8-3.1-0.9-4.6,0c-1.6,1.2-3.5,1.8-5.5,1.8
			c-2.1,0-4-0.6-5.7-1.8c-1.5-0.9-3.2-0.8-4.3-0.1l-1-1.5c1.6-1.1,4.1-1.3,6.3,0.1c1.4,1,2.9,1.5,4.7,1.5c1.6,0,3.1-0.5,4.4-1.5
			c2.1-1.4,4.6-1.3,6.6,0c1.4,1,2.9,1.5,4.5,1.5c1.7,0,3.3-0.5,4.6-1.5c2.2-1.4,4.8-1.2,6.5,0c1.4,0.9,3,1.4,4.6,1.4
			c1.7,0,3.3-0.5,4.6-1.5c1.8-1.3,4.4-1.3,6.4,0c1.4,1,3,1.5,4.7,1.5c1.6,0,3.1-0.5,4.5-1.5c2-1.3,4.5-1.3,6.5,0c3,2,6.4,2,9.2,0
			c2.1-1.3,4.6-1.3,6.4,0c1,0.6,2,1.1,3.1,1.3l-0.4,1.8c-1.3-0.3-2.6-0.8-3.8-1.6c-1.3-0.9-3-0.9-4.4,0C85,135.4,83.1,136,81.1,136z
			 M81.1,130.6c-2,0-3.9-0.6-5.6-1.8c-1.4-0.9-3.2-0.9-4.5,0c-3.4,2.4-7.8,2.3-11.2,0c-1.4-0.9-3.2-0.9-4.4,0
			c-3.2,2.3-7.6,2.4-11.3,0c-1.1-0.9-2.9-0.9-4.4,0c-3.1,2.3-7.7,2.4-11.1,0c-1.4-0.8-3.1-0.9-4.6,0c-1.6,1.2-3.5,1.8-5.5,1.8
			c-2.1,0-4-0.6-5.7-1.8c-1.5-0.9-3.2-0.8-4.3-0.1L8.2,129l-0.4-0.1c-2.4-0.8-4.8-1.8-7-2.7L0,125.8l2.8-9.9h0.7
			c3.9,0,7.7,0,11.5,0.1l3.1-4.4l13.2-1.6l5.5-4.6l0.4,0c5.2,0.3,10.3,0.7,15.3,1.3v-7.1H12.1l0.2-1.1C23.3,49.6,36.9,16.9,52.7,1.4
			L54.3,0v107c0.5,0.1,1,0.1,1.6,0.2c0.3,0,0.6,0,1,0.1c0.1,0,0.4,0,0.7,0.1c10.8,1.5,21.6,3.7,31.8,6.7c4.2-0.3,8.3-0.6,12.3-0.9
			l1.4-0.1l-0.4,1.3c-1.9,5.5-4.1,10.7-6.6,15.6l-0.3,0.6l-0.7-0.1c-1.3-0.3-2.6-0.8-3.8-1.6c-1.3-0.9-3-0.9-4.4,0
			C85,130,83.1,130.6,81.1,130.6z M73.3,126.3c1.1,0,2.2,0.3,3.2,1c3,2,6.4,2,9.2,0c2.1-1.3,4.6-1.3,6.4,0c0.8,0.5,1.6,0.9,2.4,1.1
			c2.1-4.2,4-8.7,5.7-13.4c-3.6,0.3-7.3,0.5-11.1,0.8l-0.2,0l0,0c-4.8,0.2-9.8,0.5-14.8,0.7l-0.1,0l-3.9,0.2
			c-12.1,0.5-25.3,0.8-39.1,0.9l0,0h-1.2c-4.5,0-9,0-13.5,0.1h-0.9c-3.7-0.1-7.4-0.1-11.2-0.1l-2,7.1c1.9,0.8,3.8,1.5,5.8,2.2
			c1.6-0.9,3.9-0.9,5.9,0.3c1.4,1,2.9,1.5,4.7,1.5c1.6,0,3.1-0.5,4.4-1.5c2.1-1.4,4.6-1.3,6.6,0c1.4,1,2.9,1.5,4.5,1.5
			c1.7,0,3.3-0.5,4.6-1.5c2.2-1.4,4.8-1.2,6.5,0c1.4,0.9,3,1.4,4.6,1.4c1.7,0,3.3-0.5,4.6-1.5c1.8-1.3,4.4-1.3,6.4,0
			c1.4,1,3,1.5,4.7,1.5c1.6,0,3.1-0.5,4.5-1.5C71,126.7,72.1,126.3,73.3,126.3z M19.1,113.3l-1.9,2.7c4.3-0.1,8.5-0.1,12.7-0.1h0.6
			l7.2-5.9l0.4,0c5.9,0.4,11.9,0.9,17.8,1.6c0.2,0,0.6,0,1,0.1c0.1,0,0.4,0,0.7,0.1c5.6,0.7,11.3,1.7,16.8,2.9
			c3.1-0.1,6.2-0.3,9.3-0.4c-8.5-2.3-17.4-4-26.5-5.2c-0.3-0.1-0.3-0.1-0.4-0.1c-0.4-0.1-0.7-0.1-0.9-0.1c-0.9-0.1-1.7-0.2-2.4-0.3
			l-0.8-0.1c-4.9-0.6-10-1-15-1.3l-5.3,4.5L19.1,113.3z M38.3,111.8l-4.9,4c11.6-0.1,22.7-0.4,33.2-0.7c-3.1-0.6-6.3-1.1-9.5-1.5
			c-0.3-0.1-0.3-0.1-0.4-0.1c-0.4-0.1-0.7-0.1-0.9-0.1C49.9,112.7,44.1,112.2,38.3,111.8z M14.4,97.8h38.1V4.3
			C37.7,20,24.9,51.4,14.4,97.8z M92.3,105.9L59,101.3V14l1.8-0.3L92.3,105.9z M60.8,99.7l28.8,4L60.8,19.4V99.7z"/>
	</g>
</g>
</svg>
