<?xml version="1.0" encoding="utf-8"?>
<!-- Generator: Adobe Illustrator 19.0.0, SVG Export Plug-In . SVG Version: 6.00 Build 0)  -->
<svg version="1.1" id="Слой_1" xmlns="http://www.w3.org/2000/svg" xmlns:xlink="http://www.w3.org/1999/xlink" x="0px" y="0px"
	 viewBox="0 0 283.5 283.5" style="enable-background:new 0 0 283.5 283.5;" xml:space="preserve">
<style type="text/css">
	.st0{fill:#FFFFFF;}
</style>
<path id="XMLID_79_" class="st0" d="M67,283.5H34c-6.6,0-12-5.4-12-12V12c0-6.6,5.4-12,12-12h33c6.6,0,12,5.4,12,12v259.5
	C79,278.1,73.6,283.5,67,283.5z"/>
<path id="XMLID_80_" class="st0" d="M250,283.5h-33c-6.6,0-12-5.4-12-12V12c0-6.6,5.4-12,12-12h33c6.6,0,12,5.4,12,12v259.5
	C262,278.1,256.6,283.5,250,283.5z"/>
<path id="XMLID_81_" class="st0" d="M162,283.5h-33c-6.6,0-12-5.4-12-12V12c0-6.6,5.4-12,12-12h33c6.6,0,12,5.4,12,12v259.5
	C174,278.1,168.6,283.5,162,283.5z"/>
</svg>
