<svg id="Слой_1" xmlns="http://www.w3.org/2000/svg" viewBox="0 0 283.5 283.5">
    <style>
        .st0{fill:#fff}
    </style>
    <path id="XMLID_79_" class="st0" d="M67 283.5H34c-6.6 0-12-5.4-12-12V12c0-6.6 5.4-12 12-12h33c6.6 0 12 5.4 12 12v259.5c0 6.6-5.4 12-12 12z"/>
    <path id="XMLID_80_" class="st0" d="M250 283.5h-33c-6.6 0-12-5.4-12-12V12c0-6.6 5.4-12 12-12h33c6.6 0 12 5.4 12 12v259.5c0 6.6-5.4 12-12 12z"/>
    <path id="XMLID_81_" class="st0" d="M162 283.5h-33c-6.6 0-12-5.4-12-12V12c0-6.6 5.4-12 12-12h33c6.6 0 12 5.4 12 12v259.5c0 6.6-5.4 12-12 12z"/>
</svg>
